<?xml version="1.0" encoding="UTF-8"?>
<svg version="1.1" xmlns="http://www.w3.org/2000/svg" width="500" height="500">
<path d="M0 0 C165 0 330 0 500 0 C500 165 500 330 500 500 C335 500 170 500 0 500 C0 335 0 170 0 0 Z " fill="#C1C8D2" transform="translate(0,0)"/>
<path d="M0 0 C1.04542969 0.74894531 2.09085938 1.49789062 3.16796875 2.26953125 C26.67875881 19.46025436 44.86251937 44.15859188 53.40771484 72.07470703 C53.9695299 73.90095335 54.57156177 75.71468532 55.17578125 77.52734375 C59.52202824 90.81895726 60.41016014 103.5694561 60.375 117.4375 C60.37412384 118.28004333 60.37324768 119.12258667 60.37234497 119.99066162 C60.2487583 156.02237686 48.38790861 189.36761909 25 217 C24.26265625 217.88429688 23.5253125 218.76859375 22.765625 219.6796875 C-0.10034227 246.05774778 -34.69980824 261.95871312 -69 266 C-74.02433155 266.31051895 -79.02930814 266.38190898 -84.0625 266.375 C-84.73775726 266.37445618 -85.41301453 266.37391235 -86.10873413 266.37335205 C-97.78371618 266.33035661 -108.74228163 265.19116426 -120 262 C-120.74958984 261.79632813 -121.49917969 261.59265625 -122.27148438 261.3828125 C-144.3228113 255.25008295 -164.12067994 243.31447906 -180.51171875 227.43701172 C-182.00425479 225.99589178 -183.51658762 224.57796201 -185.03125 223.16015625 C-203.79295403 205.32778719 -215.73027436 182.57189635 -222.75 157.8125 C-222.94883789 157.11261963 -223.14767578 156.41273926 -223.35253906 155.69165039 C-226.24721337 144.96571526 -227.34087897 134.53474703 -227.25 123.4375 C-227.24178223 122.21023193 -227.23356445 120.98296387 -227.22509766 119.71850586 C-226.79012165 84.02474895 -215.89439707 50.08840277 -192 23 C-191.20722656 22.07445312 -190.41445312 21.14890625 -189.59765625 20.1953125 C-180.42700047 9.73525963 -169.66426447 1.50471313 -158 -6 C-157.41686035 -6.37656738 -156.8337207 -6.75313477 -156.23291016 -7.14111328 C-109.64354097 -36.63554506 -44.10400452 -32.2872347 0 0 Z " fill="#1C3D68" transform="translate(333,125)"/>
<path d="M0 0 C75.4 0 75.4 0 81 3 C82.32 3 83.64 3 85 3 C85 3.99 85 4.98 85 6 C86.32 5.34 87.64 4.68 89 4 C89.66171646 18.88862027 89.66171646 18.88862027 85.56640625 23.67578125 C84.07795532 24.82870607 82.54086153 25.9181185 81 27 C80.05563651 29.16531168 80.05563651 29.16531168 80 31 C79.34 31 78.68 31 78 31 C77.505 30.01 77.505 30.01 77 29 C76.03964844 29.32742187 75.07929688 29.65484375 74.08984375 29.9921875 C69.56843141 31.2840196 65.23207954 31.22283164 60.5625 31.125 C59.73556641 31.11597656 58.90863281 31.10695312 58.05664062 31.09765625 C56.03763292 31.07431512 54.01877644 31.03845288 52 31 C52 32.32 52 33.64 52 35 C53.04800781 34.96519531 54.09601563 34.93039063 55.17578125 34.89453125 C56.55467147 34.86639063 57.93357902 34.83909076 59.3125 34.8125 C60.00279297 34.78736328 60.69308594 34.76222656 61.40429688 34.73632812 C63.42578125 34.70703125 63.42578125 34.70703125 67 35 C67.99 35.99 68.98 36.98 70 38 C64.06 38 58.12 38 52 38 C52 39.32 52 40.64 52 42 C52.59538574 41.98428955 53.19077148 41.9685791 53.80419922 41.95239258 C56.49437003 41.89014199 59.18438957 41.85104217 61.875 41.8125 C63.28072266 41.77479492 63.28072266 41.77479492 64.71484375 41.73632812 C65.61074219 41.72666016 66.50664062 41.71699219 67.4296875 41.70703125 C68.25710449 41.6913208 69.08452148 41.67561035 69.93701172 41.65942383 C70.95819092 41.82800903 70.95819092 41.82800903 72 42 C72.66 42.99 73.32 43.98 74 45 C66.74 45 59.48 45 52 45 C52 46.32 52 47.64 52 49 C53.39025391 48.98259766 53.39025391 48.98259766 54.80859375 48.96484375 C56.00613281 48.95582031 57.20367187 48.94679687 58.4375 48.9375 C59.63246094 48.92589844 60.82742187 48.91429687 62.05859375 48.90234375 C65 49 65 49 66 50 C69.4660368 50.03213544 72.9218885 49.93131234 76.38671875 49.83984375 C80 50 80 50 83.0234375 51.05078125 C90.20620039 53.34134737 99.99385302 50.58922823 107 48 C109.35959458 46.50513154 109.35959458 46.50513154 111 45 C111.125 49.75 111.125 49.75 110 52 C110.66 52 111.32 52 112 52 C112 86.65 112 121.3 112 157 C75.04 157 38.08 157 0 157 C0 105.19 0 53.38 0 0 Z " fill="#E6E8EC" transform="translate(195,167)"/>
<path d="M0 0 C6.58904727 -0.79539214 13.48651963 -1.58976352 20 0 C24.16126986 3.63823732 25.86564894 7.97360325 28 13 C31.96450542 20.98803903 31.96450542 20.98803903 38.78515625 26.203125 C40.81275373 26.65312083 42.85511256 27.04087018 44.90625 27.3671875 C50.14468925 28.43868644 54.42689891 31.32626997 59 34 C65.36030097 37.46925508 70.92835087 37.31352139 78 37 C78 35.35 78 33.7 78 32 C78.99 31.505 78.99 31.505 80 31 C80 30.34 80 29.68 80 29 C82.7663534 27.65722268 85.53876211 26.32744772 88.3125 25 C89.09818359 24.6184375 89.88386719 24.236875 90.69335938 23.84375 C91.45068359 23.4828125 92.20800781 23.121875 92.98828125 22.75 C93.68477783 22.41484375 94.38127441 22.0796875 95.09887695 21.734375 C97 21 97 21 100 21 C100 21.99 100 22.98 100 24 C100.66 24 101.32 24 102 24 C101.67 25.98 101.34 27.96 101 30 C100.360625 30.12375 99.72125 30.2475 99.0625 30.375 C98.381875 30.58125 97.70125 30.7875 97 31 C96.67 31.66 96.34 32.32 96 33 C98.64 33.33 101.28 33.66 104 34 C104 33.34 104 32.68 104 32 C109.37770412 32.81480366 114.08988126 34.80062311 118.6875 37.6875 C121.13662296 39.32907035 121.13662296 39.32907035 125 39 C129.536026 50.66406685 129.40622575 63.12127841 129.375 75.4375 C129.37412384 76.28004333 129.37324768 77.12258667 129.37234497 77.99066162 C129.23101261 119.19613688 113.52713781 153.69086421 86 184 C84.66666667 182.33333333 83.33333333 180.66666667 82 179 C81.401875 178.2575 80.80375 177.515 80.1875 176.75 C77.09222486 172.85879696 74.04723372 168.92887719 71 165 C70.72027344 165.63035156 70.44054687 166.26070312 70.15234375 166.91015625 C69 169 69 169 66.5625 170.4375 C63.57693154 172.25796858 62.69334074 173.99816868 61 177 C58.08235 178.9451 56.37462715 179.45276317 53 180 C53.639375 179.360625 54.27875 178.72125 54.9375 178.0625 C55.38480469 177.61132812 55.83210938 177.16015625 56.29296875 176.6953125 C57.61404667 175.38330377 58.95371722 174.09000157 60.30078125 172.8046875 C61.10902344 172.02351562 61.91726563 171.24234375 62.75 170.4375 C63.52859375 169.69371094 64.3071875 168.94992187 65.109375 168.18359375 C67.06764567 165.92187205 67.66365348 164.91763441 68 162 C67.16006624 160.21613058 67.16006624 160.21613058 65.71875 158.609375 C65.20957031 157.98595215 64.70039063 157.3625293 64.17578125 156.72021484 C63.62277344 156.07004395 63.06976563 155.41987305 62.5 154.75 C61.94699219 154.08049316 61.39398438 153.41098633 60.82421875 152.72119141 C57.45335604 148.65859135 54.03467197 144.63221422 50.5 140.7109375 C48.59332304 138.53613409 46.80678255 136.25847819 45 134 C44.67 141.59 44.34 149.18 44 157 C43.67 157 43.34 157 43 157 C43 122.35 43 87.7 43 52 C42.01 52.33 41.02 52.66 40 53 C40.33 50.69 40.66 48.38 41 46 C40.46375 46.639375 39.9275 47.27875 39.375 47.9375 C36.46080514 50.46824817 34.79188149 50.48721887 31 51 C29.28103516 51.29970703 29.28103516 51.29970703 27.52734375 51.60546875 C26.34269531 51.79753906 25.15804687 51.98960937 23.9375 52.1875 C22.15666016 52.48720703 22.15666016 52.48720703 20.33984375 52.79296875 C16.88091965 53.00738159 15.05327435 52.55261021 12 51 C11.67 51.99 11.34 52.98 11 54 C11 52.68 11 51.36 11 50 C6.05 50.33 1.1 50.66 -4 51 C-4 50.34 -4 49.68 -4 49 C-8.29 49 -12.58 49 -17 49 C-17 47.68 -17 46.36 -17 45 C-6.605 44.505 -6.605 44.505 4 44 C2.41596476 42.41596476 0.7228362 42.78025065 -1.47265625 42.68359375 C-2.82133789 42.62075195 -2.82133789 42.62075195 -4.19726562 42.55664062 C-5.14279297 42.51732422 -6.08832031 42.47800781 -7.0625 42.4375 C-8.01189453 42.39431641 -8.96128906 42.35113281 -9.93945312 42.30664062 C-12.29281353 42.20020724 -14.64628354 42.09818992 -17 42 C-17 40.68 -17 39.36 -17 38 C-8.585 37.505 -8.585 37.505 0 37 C-3.04213267 35.47893366 -6.28047572 35.62570662 -9.625 35.4375 C-10.68460938 35.37272461 -10.68460938 35.37272461 -11.765625 35.30664062 C-13.51018537 35.20055249 -15.25506697 35.09977111 -17 35 C-17 33.68 -17 32.36 -17 31 C-9.08 30.67 -1.16 30.34 7 30 C7.33 29.34 7.66 28.68 8 28 C8.33 28.99 8.66 29.98 9 31 C9.66 31 10.32 31 11 31 C11.0825 30.2575 11.165 29.515 11.25 28.75 C12.14809799 25.45697405 13.38416074 24.14023212 16 22 C16.66 22 17.32 22 18 22 C17.979375 21.05125 17.95875 20.1025 17.9375 19.125 C17.92776526 14.38418015 18.46975991 9.70588083 19 5 C18.01 5.33 17.02 5.66 16 6 C15.34 5.34 14.68 4.68 14 4 C13.01 4.495 13.01 4.495 12 5 C11.34 4.34 10.68 3.68 10 3 C7.57284794 2.32059533 7.57284794 2.32059533 4.875 1.875 C3.50988281 1.62363281 3.50988281 1.62363281 2.1171875 1.3671875 C1.06917969 1.18542969 1.06917969 1.18542969 0 1 C0 0.67 0 0.34 0 0 Z " fill="#569147" transform="translate(264,167)"/>
<path d="M0 0 C6.60230115 -0.79699207 13.46518873 -1.54449038 20 0 C23.62439752 3.09759555 25.10608303 6.61700561 26.98632812 10.94091797 C28.94550836 14.92062079 31.64930477 18.4209369 34.25 22 C34.75853516 22.71728271 35.26707031 23.43456543 35.79101562 24.17358398 C38.65094368 28.26426902 38.65094368 28.26426902 42.06091309 31.88468933 C45.04161185 36.67343943 44.52494494 41.23570407 44.45410156 46.7668457 C44.45468567 47.95751144 44.45526978 49.14817719 44.45587158 50.37492371 C44.45356582 53.63099856 44.43353568 56.88638169 44.40557575 60.14231896 C44.38053424 63.548233 44.37821795 66.95416131 44.37347412 70.3601532 C44.36105234 76.80582332 44.32824183 83.25122137 44.28807616 89.6967718 C44.24333338 97.03649196 44.22136516 104.37622525 44.20129442 111.71604788 C44.15950826 126.81085006 44.08917202 141.90539779 44 157 C43.67 157 43.34 157 43 157 C43 122.35 43 87.7 43 52 C42.01 52.33 41.02 52.66 40 53 C40.33 50.69 40.66 48.38 41 46 C40.46375 46.639375 39.9275 47.27875 39.375 47.9375 C36.46080514 50.46824817 34.79188149 50.48721887 31 51 C29.28103516 51.29970703 29.28103516 51.29970703 27.52734375 51.60546875 C26.34269531 51.79753906 25.15804687 51.98960937 23.9375 52.1875 C22.15666016 52.48720703 22.15666016 52.48720703 20.33984375 52.79296875 C16.88091965 53.00738159 15.05327435 52.55261021 12 51 C11.67 51.99 11.34 52.98 11 54 C11 52.68 11 51.36 11 50 C6.05 50.33 1.1 50.66 -4 51 C-4 50.34 -4 49.68 -4 49 C-8.29 49 -12.58 49 -17 49 C-17 47.68 -17 46.36 -17 45 C-6.605 44.505 -6.605 44.505 4 44 C2.41596476 42.41596476 0.7228362 42.78025065 -1.47265625 42.68359375 C-2.82133789 42.62075195 -2.82133789 42.62075195 -4.19726562 42.55664062 C-5.14279297 42.51732422 -6.08832031 42.47800781 -7.0625 42.4375 C-8.01189453 42.39431641 -8.96128906 42.35113281 -9.93945312 42.30664062 C-12.29281353 42.20020724 -14.64628354 42.09818992 -17 42 C-17 40.68 -17 39.36 -17 38 C-8.585 37.505 -8.585 37.505 0 37 C-3.04213267 35.47893366 -6.28047572 35.62570662 -9.625 35.4375 C-10.68460938 35.37272461 -10.68460938 35.37272461 -11.765625 35.30664062 C-13.51018537 35.20055249 -15.25506697 35.09977111 -17 35 C-17 33.68 -17 32.36 -17 31 C-9.08 30.67 -1.16 30.34 7 30 C7.33 29.34 7.66 28.68 8 28 C8.33 28.99 8.66 29.98 9 31 C9.66 31 10.32 31 11 31 C11.0825 30.2575 11.165 29.515 11.25 28.75 C12.14809799 25.45697405 13.38416074 24.14023212 16 22 C16.66 22 17.32 22 18 22 C17.979375 21.05125 17.95875 20.1025 17.9375 19.125 C17.92776526 14.38418015 18.46975991 9.70588083 19 5 C18.01 5.33 17.02 5.66 16 6 C15.34 5.34 14.68 4.68 14 4 C13.01 4.495 13.01 4.495 12 5 C11.34 4.34 10.68 3.68 10 3 C7.57284794 2.32059533 7.57284794 2.32059533 4.875 1.875 C3.50988281 1.62363281 3.50988281 1.62363281 2.1171875 1.3671875 C1.06917969 1.18542969 1.06917969 1.18542969 0 1 C0 0.67 0 0.34 0 0 Z " fill="#8690A1" transform="translate(264,167)"/>
<path d="M0 0 C1.093125 0.185625 2.18625 0.37125 3.3125 0.5625 C6.93624133 1.2578068 6.93624133 1.2578068 10 0 C16.61126005 8.1538874 16.61126005 8.1538874 16 15 C14.5 16.9375 14.5 16.9375 13 18 C13.28875 18.721875 13.5775 19.44375 13.875 20.1875 C14.91666667 22.79166667 15.95833333 25.39583333 17 28 C14.8125 28.5 14.8125 28.5 12 28 C10.4610868 26.04575512 9.29691519 24.03371633 8.11328125 21.84765625 C7.12923023 19.84157239 7.12923023 19.84157239 5 19 C5 21.97 5 24.94 5 28 C4.030625 27.979375 3.06125 27.95875 2.0625 27.9375 C-0.87465895 27.64381501 -0.87465895 27.64381501 -2 29 C-4.50248524 29.16087405 -6.99500324 29.2784164 -9.5 29.375 C-16.60826296 29.72243787 -22.53464817 30.76732408 -29 34 C-30.99960012 34.039992 -33.00047242 34.04346799 -35 34 C-36.0070436 30.8980736 -37.00440805 27.79311902 -38 24.6875 C-38.28617188 23.80642578 -38.57234375 22.92535156 -38.8671875 22.01757812 C-39.13789063 21.17001953 -39.40859375 20.32246094 -39.6875 19.44921875 C-39.93886719 18.66893311 -40.19023437 17.88864746 -40.44921875 17.0847168 C-41 15 -41 15 -41 12 C-39.865625 11.71125 -38.73125 11.4225 -37.5625 11.125 C-36.386875 10.75375 -35.21125 10.3825 -34 10 C-33.67 9.34 -33.34 8.68 -33 8 C-31 7.66666667 -29 7.33333333 -27 7 C-26.67 6.34 -26.34 5.68 -26 5 C-19.33333333 5 -12.66666667 5 -6 5 C-5.505 6.485 -5.505 6.485 -5 8 C-4.34 8 -3.68 8 -3 8 C-1.92474806 5.34771188 -0.90543849 2.71631546 0 0 Z " fill="#2A4B77" transform="translate(243,112)"/>
<path d="M0 0 C8.99787715 4.68372621 17.2658391 10.17008285 25.27636719 16.375 C26.23929687 17.11492187 27.20222656 17.85484375 28.19433594 18.6171875 C40.28692372 28.20256737 49.43741606 38.67202751 57.96630859 51.41992188 C59.09823923 53.10916908 60.25354585 54.78270893 61.41308594 56.453125 C65.22869227 62.11445848 67.84197962 67.80537851 70.13574219 74.234375 C70.93052448 76.42274816 71.81330803 78.5802909 72.76074219 80.70703125 C75.46743698 87.25751169 77.01548339 94.13191628 78.69189453 101.00585938 C79.19028932 103.02608621 79.72384987 105.03758389 80.26464844 107.046875 C82.49105292 116.54338699 82.56399539 125.99011123 82.58886719 135.6875 C82.59254303 136.37927338 82.59621887 137.07104675 82.6000061 137.78378296 C82.62328785 146.18276722 82.07435719 154.15561714 80.27636719 162.375 C80.00070016 163.93665445 79.72919682 165.499056 79.46386719 167.0625 C78.51129769 171.77200357 77.1752843 176.34497232 75.77636719 180.9375 C75.56262451 181.65317139 75.34888184 182.36884277 75.12866211 183.10620117 C74.57222251 184.88273376 73.93072112 186.63215348 73.27636719 188.375 C72.61636719 188.705 71.95636719 189.035 71.27636719 189.375 C71.56556114 181.0606738 72.77110164 173.41694572 74.81640625 165.37719727 C74.98881836 164.69842529 75.16123047 164.01965332 75.33886719 163.3203125 C75.49484375 162.72750488 75.65082031 162.13469727 75.81152344 161.52392578 C77.08382166 155.64221939 77.44546645 149.89510156 77.47949219 143.90625 C77.48519226 143.10828003 77.49089233 142.31031006 77.49676514 141.48815918 C77.50616691 139.80396834 77.51272981 138.11975951 77.51660156 136.43554688 C77.52623442 133.90981173 77.55727323 131.38491727 77.58886719 128.859375 C77.67978284 115.137683 75.6740707 102.63913286 71.33886719 89.5625 C70.94103027 88.34554443 70.94103027 88.34554443 70.53515625 87.10400391 C69.79326889 84.85710632 69.03662496 82.61573127 68.27636719 80.375 C67.81810547 78.97314453 67.81810547 78.97314453 67.35058594 77.54296875 C61.13574703 60.25334583 48.79386935 44.49953822 36.27636719 31.375 C35.76928223 30.83875 35.26219727 30.3025 34.73974609 29.75 C30.45590874 25.325769 25.90256474 21.58491464 20.90136719 18 C20.12188721 17.44054687 19.34240723 16.88109375 18.53930664 16.3046875 C6.9826237 8.18182401 -5.34912409 1.93526506 -18.72363281 -2.625 C-19.67496094 -2.97046875 -20.62628906 -3.3159375 -21.60644531 -3.671875 C-40.39496778 -10.04918027 -60.03525202 -11.33608764 -79.72363281 -11.625 C-71.54075896 -27.9907477 -11.22870974 -5.56795524 0 0 Z " fill="#EFF2F3" transform="translate(314.7236328125,109.625)"/>
<path d="M0 0 C0.33 0 0.66 0 1 0 C0.93941406 0.71542969 0.87882812 1.43085938 0.81640625 2.16796875 C0.73261719 3.16441406 0.64882812 4.16085938 0.5625 5.1875 C0.48128906 6.15042969 0.40007812 7.11335937 0.31640625 8.10546875 C0.21199219 9.39066406 0.10757813 10.67585937 0 12 C-0.12242065 13.41067749 -0.12242065 13.41067749 -0.24731445 14.84985352 C-1.87835177 34.47424518 -2.33297911 53.91161269 3 73 C3.20898926 73.75394043 3.41797852 74.50788086 3.63330078 75.28466797 C8.40154989 91.91817817 15.60623651 108.11458159 26 122 C26.639375 122.86109375 27.27875 123.7221875 27.9375 124.609375 C47.19843612 149.26920988 71.80079787 166.27909478 101.515625 175.86328125 C105.39512766 177.12890375 109.19622174 178.52506557 113 180 C113 180.66 113 181.32 113 182 C93.37381342 179.95922396 75.02339715 171.15474955 59 160 C58.24203125 159.47535156 57.4840625 158.95070313 56.703125 158.41015625 C28.18647853 137.8211375 9.32668279 109.54188585 -0.4375 76.0625 C-0.67243164 75.25981689 -0.90736328 74.45713379 -1.14941406 73.63012695 C-4.52350768 61.30718725 -5.35161151 48.98173726 -5.31567383 36.27709961 C-5.31249826 33.9362182 -5.33613797 31.59658739 -5.36132812 29.25585938 C-5.44991189 8.17486783 -5.44991189 8.17486783 0 0 Z " fill="#E6EAED" transform="translate(108,209)"/>
<path d="M0 0 C4.87995132 2.26569169 7.63239735 5.17373306 10 10 C10.90866304 15.68680129 10.17922718 20.1176154 7 25 C3.99060946 28.47960781 1.94141568 29.80389741 -2.70703125 30.2734375 C-12.12951224 30.58159411 -12.12951224 30.58159411 -15.5625 27.9375 C-19.13444804 23.63284466 -20.78844049 20.00981535 -21.375 14.4375 C-20.79619117 9.13175242 -18.98388222 6.16047646 -15.5625 2.125 C-11.04903504 -1.37039016 -5.38402258 -0.79133299 0 0 Z " fill="#214572" transform="translate(229,186)"/>
<path d="M0 0 C1.46107016 4.38321047 -0.29124768 6.54108079 -2.23828125 10.58984375 C-19.94087943 44.85673556 -48.28965203 74.00381217 -85.671875 86.2734375 C-86.44015625 86.51320313 -87.2084375 86.75296875 -88 87 C-88.72703125 87.26039063 -89.4540625 87.52078125 -90.203125 87.7890625 C-104.02175266 92.71008458 -117.68529251 94.18704769 -132.2644043 94.18530273 C-134.29822889 94.18748469 -136.33150548 94.20568982 -138.36523438 94.22460938 C-146.27897676 94.23620743 -154.3344001 94.21098209 -162 92 C-162.33 91.34 -162.66 90.68 -163 90 C-161.84290527 90.02094727 -160.68581055 90.04189453 -159.49365234 90.06347656 C-128.96284987 90.98027616 -128.96284987 90.98027616 -99 86 C-98.31631348 85.81276367 -97.63262695 85.62552734 -96.92822266 85.43261719 C-92.51887427 84.18754881 -88.26362847 82.67182803 -84 81 C-83.36433105 80.75411133 -82.72866211 80.50822266 -82.07373047 80.25488281 C-66.78570069 74.25706852 -53.35605312 65.81635803 -41 55 C-39.75863281 53.97519531 -39.75863281 53.97519531 -38.4921875 52.9296875 C-24.54863671 41.08422586 -13.41799267 24.7184817 -6.38183594 7.88500977 C-4.81340505 4.24260031 -3.43659054 2.05002689 0 0 Z " fill="#E7EEEC" transform="translate(385,300)"/>
<path d="M0 0 C1.66519519 0.34060811 3.33157466 0.67558396 5 1 C5 1.33 5 1.66 5 2 C3.89527344 2.12375 2.79054688 2.2475 1.65234375 2.375 C-23.93067041 5.61194333 -46.91006512 15.87518385 -67 32 C-67.54462891 32.43393066 -68.08925781 32.86786133 -68.65039062 33.31494141 C-91.7026197 51.83678478 -109.24864276 78.33113952 -116.26171875 107.2421875 C-116.50535156 107.82226562 -116.74898438 108.40234375 -117 109 C-118.485 109.495 -118.485 109.495 -120 110 C-119.87877196 84.23904256 -99.0710309 57.74096961 -82 40 C-81.2575 39.17113281 -80.515 38.34226563 -79.75 37.48828125 C-64.64575115 21.20401296 -43.70053619 10.38744466 -22.81787109 3.59765625 C-21.27264235 3.08963584 -19.73842887 2.5483046 -18.20703125 2 C-12.38039649 -0.0859553 -6.08701085 -2.09896926 0 0 Z " fill="#EAEFF1" transform="translate(228,98)"/>
<path d="M0 0 C3.11257569 0 5.10765685 0.17361624 8 1 C7.34 1 6.68 1 6 1 C6.4640625 2.299375 6.4640625 2.299375 6.9375 3.625 C8.70623621 9.77767523 10.87557083 20.04148544 8 26 C5.92578125 27.046875 5.92578125 27.046875 3.3125 27.75 C2.03826172 28.11351562 2.03826172 28.11351562 0.73828125 28.484375 C-2.2307198 29.0434451 -4.98563192 29.08826847 -8 29 C-9.0070436 25.8980736 -10.00440805 22.79311902 -11 19.6875 C-11.28617188 18.80642578 -11.57234375 17.92535156 -11.8671875 17.01757812 C-12.13789063 16.17001953 -12.40859375 15.32246094 -12.6875 14.44921875 C-12.93886719 13.66893311 -13.19023437 12.88864746 -13.44921875 12.0847168 C-14 10 -14 10 -14 7 C-12.865625 6.71125 -11.73125 6.4225 -10.5625 6.125 C-9.386875 5.75375 -8.21125 5.3825 -7 5 C-6.67 4.34 -6.34 3.68 -6 3 C-2.9375 2.375 -2.9375 2.375 0 2 C0 1.34 0 0.68 0 0 Z " fill="#2A4E7F" transform="translate(216,117)"/>
<path d="M0 0 C2 0 2 0 3.45703125 1.23828125 C7.17792725 5.48669668 10.26605333 10.51773051 10.625 16.25 C9.87078368 20.77529794 8.55842478 22.20409481 5 25 C1.21543839 26.89228081 -2.898306 26.7463327 -7 26 C-10.65655427 23.71286116 -12.53471023 20.87071981 -13.5703125 16.70703125 C-13.82582943 13.39086592 -13.77308911 11.03801061 -11.74609375 8.31640625 C-9.13227733 6.00393207 -7.52084222 5 -4 5 C-4 4.34 -4 3.68 -4 3 C-3.01 2.67 -2.02 2.34 -1 2 C-0.67 1.34 -0.34 0.68 0 0 Z " fill="#264A79" transform="translate(150,173)"/>
<path d="M0 0 C4.64113246 0.85760056 7.2819983 3.21233312 10 7 C10.625 10.1875 10.625 10.1875 10 13 C8.69855198 14.04115841 7.36161311 15.03886134 6 16 C5.29618843 17.98723268 4.6288189 19.98777953 4 22 C2.75 23.9375 2.75 23.9375 1 25 C-3.65686807 25.21659851 -6.0105043 23.3732458 -9.375 20.4375 C-10.59397082 19.3029897 -11.80595171 18.16071192 -13 17 C-11.2703384 12.79046213 -8.31793255 9.64856424 -5.375 6.25 C-4.859375 5.64800781 -4.34375 5.04601562 -3.8125 4.42578125 C-2.54530865 2.94739134 -1.27314225 1.47326829 0 0 Z " fill="#E3E7EA" transform="translate(324,141)"/>
<path d="M0 0 C2.25 1.625 2.25 1.625 4 4 C4.061875 4.99 4.12375 5.98 4.1875 7 C4.66501455 10.11598596 4.66501455 10.11598596 7.0546875 11.2734375 C9.34591829 12.27986598 11.63363232 13.18730807 14 14 C12 16 12 16 8.6875 16.1875 C5.65250325 16.03317813 2.94278081 15.71340141 0 15 C1.20381448 17.49361571 2.45428722 19.68143083 4 22 C2.68 22.99 1.36 23.98 0 25 C-2.37080988 22.24302705 -4.71860021 19.46736964 -7.0625 16.6875 C-8.07666992 15.50897461 -8.07666992 15.50897461 -9.11132812 14.30664062 C-9.74619141 13.54931641 -10.38105469 12.79199219 -11.03515625 12.01171875 C-11.6269165 11.31522217 -12.21867676 10.61872559 -12.82836914 9.90112305 C-13.21500732 9.27375244 -13.60164551 8.64638184 -14 8 C-12.65684052 3.97052156 -10.61475957 3.11673332 -7.0625 1.0234375 C-4.44201432 -0.27687926 -2.86417299 -0.71604325 0 0 Z " fill="#E6ECEE" transform="translate(178,142)"/>
<path d="M0 0 C2.96257863 2.77621252 5.09509771 5.52816212 7.1875 9 C10.50505289 14.35691441 14.19925511 19.31471135 18.08203125 24.2734375 C19.86887197 26.81358989 20.99528563 29.07622801 22 32 C20.65808594 31.40251953 20.65808594 31.40251953 19.2890625 30.79296875 C12.29802398 27.71706686 5.40742837 24.94573003 -2 23 C-2.31918373 15.14453364 -1.35709504 7.73059495 0 0 Z " fill="#F3F5F6" transform="translate(285,171)"/>
<path d="M0 0 C0 0.99 0 1.98 0 3 C0.66 3 1.32 3 2 3 C1.67 4.98 1.34 6.96 1 9 C0.360625 9.12375 -0.27875 9.2475 -0.9375 9.375 C-1.618125 9.58125 -2.29875 9.7875 -3 10 C-3.33 10.66 -3.66 11.32 -4 12 C-1.36 12.33 1.28 12.66 4 13 C4 12.34 4 11.68 4 11 C8.38889325 11.66498383 11.9811485 13.18757677 16 15 C15.34 15.33 14.68 15.66 14 16 C13.01 15.67 12.02 15.34 11 15 C8.26710707 14.77202438 5.54957796 14.58331813 2.8125 14.4375 C2.06291016 14.39431641 1.31332031 14.35113281 0.54101562 14.30664062 C-1.30578375 14.20077315 -3.15286834 14.0999024 -5 14 C-5 14.66 -5 15.32 -5 16 C-11.69675136 17.03026944 -18.2314676 17.10152799 -25 17 C-24.01 16.67 -23.02 16.34 -22 16 C-22 14.35 -22 12.7 -22 11 C-21.34 10.67 -20.68 10.34 -20 10 C-20 9.34 -20 8.68 -20 8 C-17.2336466 6.65722268 -14.46123789 5.32744772 -11.6875 4 C-10.90181641 3.6184375 -10.11613281 3.236875 -9.30664062 2.84375 C-8.54931641 2.4828125 -7.79199219 2.121875 -7.01171875 1.75 C-6.31522217 1.41484375 -5.61872559 1.0796875 -4.90112305 0.734375 C-3 0 -3 0 0 0 Z " fill="#284E76" transform="translate(364,188)"/>
<path d="M0 0 C1.65 0 3.3 0 5 0 C4.67 3.63 4.34 7.26 4 11 C6.64 11.33 9.28 11.66 12 12 C12.33 9.36 12.66 6.72 13 4 C15.475 4.495 15.475 4.495 18 5 C16.60695059 12.40774509 14.88100377 19.70170537 13 27 C11.35 26.67 9.7 26.34 8 26 C8.66 22.7 9.32 19.4 10 16 C7.36 16 4.72 16 2 16 C1.34 18.31 0.68 20.62 0 23 C-1.32 23 -2.64 23 -4 23 C-3.54593375 15.04601192 -2.12888539 7.67202093 0 0 Z " fill="#E9EEF0" transform="translate(275,119)"/>
<path d="M0 0 C0.92154781 2.49074577 1.16081188 3.60816581 0.13549805 6.10644531 C-0.54452271 7.20617676 -0.54452271 7.20617676 -1.23828125 8.328125 C-1.72876953 9.12734375 -2.21925781 9.9265625 -2.72460938 10.75 C-3.24861328 11.575 -3.77261719 12.4 -4.3125 13.25 C-4.82490234 14.09046875 -5.33730469 14.9309375 -5.86523438 15.796875 C-8.70260516 20.35442494 -8.70260516 20.35442494 -10 22 C-10.66 22 -11.32 22 -12 22 C-12.144375 21.0925 -12.28875 20.185 -12.4375 19.25 C-13.16134067 15.06780948 -13.62604885 12.56092673 -16 9 C-17.66614608 8.95834635 -19.33385392 8.95834635 -21 9 C-21.66 8.34 -22.32 7.68 -23 7 C-23 6.01 -23 5.02 -23 4 C-20.10767725 3.13200283 -17.21215302 2.2803444 -14.3125 1.4375 C-13.49587891 1.19064453 -12.67925781 0.94378906 -11.83789062 0.68945312 C-4.32355667 -1.47053761 -4.32355667 -1.47053761 0 0 Z " fill="#EAEEEF" transform="translate(354,171)"/>
<path d="M0 0 C1.65 0.33 3.3 0.66 5 1 C4.061866 3.42351283 3.08944389 5.81121194 1.9765625 8.16015625 C-0.75964201 13.80821471 -0.75964201 13.80821471 -1 20 C1.3295947 20.50241322 1.3295947 20.50241322 4 20 C7.45581179 15.81113723 9.66902092 10.88513701 12 6 C14.475 6.495 14.475 6.495 17 7 C15.76226808 9.61065302 14.51066073 12.21294605 13.25 14.8125 C12.90195312 15.55048828 12.55390625 16.28847656 12.1953125 17.04882812 C8.80584367 23.98468563 8.80584367 23.98468563 5 26 C1.07278932 26.58490372 -0.48108543 26.34594305 -3.8125 24.125 C-6.33126851 21.6781963 -6.91538078 20.80153206 -7.28125 17.3359375 C-6.93528916 13.23245752 -5.4239947 10.18327591 -3.5 6.625 C-2.99919922 5.66400391 -2.99919922 5.66400391 -2.48828125 4.68359375 C-1.66973549 3.11666329 -0.83635487 1.55749759 0 0 Z " fill="#EDF1F2" transform="translate(301,127)"/>
<path d="M0 0 C2.55328984 0.51727427 5.04338075 1.09718631 7.5625 1.75 C8.28888672 1.9346582 9.01527344 2.11931641 9.76367188 2.30957031 C14.64916953 3.57804706 19.33555582 5.05648159 24 7 C23.67 8.32 23.34 9.64 23 11 C21.741875 10.938125 20.48375 10.87625 19.1875 10.8125 C16.60530019 10.83081347 15.25548035 10.86838891 12.9375 12.0625 C11.46149086 15.1129189 12.40924088 17.75082481 13 21 C12.67 21.66 12.34 22.32 12 23 C7.35132049 21.45044016 5.82412839 17.69352845 3.25 13.6875 C2.73050781 12.91470703 2.21101562 12.14191406 1.67578125 11.34570312 C0.94681641 10.22131836 0.94681641 10.22131836 0.203125 9.07421875 C-0.24385742 8.38932373 -0.69083984 7.70442871 -1.15136719 6.9987793 C-2.19296432 4.5455124 -1.94881394 3.44977937 -1 1 C-0.67 0.67 -0.34 0.34 0 0 Z " fill="#EEF1F2" transform="translate(152,161)"/>
<path d="M0 0 C1.32 0 2.64 0 4 0 C4.33 2.31 4.66 4.62 5 7 C5.309375 6.360625 5.61875 5.72125 5.9375 5.0625 C9.09768575 1.90231425 12.68333908 2.18099207 17 2 C16.71572583 3.58467728 16.42225182 5.1677057 16.125 6.75 C15.96257812 7.63171875 15.80015625 8.5134375 15.6328125 9.421875 C15.03203736 11.86947744 14.22002883 13.80599857 13 16 C12.34 16 11.68 16 11 16 C11.66 17.32 12.32 18.64 13 20 C14.32 19.34 15.64 18.68 17 18 C15.92598892 20.91517292 15.22189824 22.77810176 13 25 C10.4375 25.1875 10.4375 25.1875 8 25 C7.67 24.67 7.34 24.34 7 24 C7.15852726 16.86627316 10.68628707 11.17141032 14 5 C11.525 4.505 11.525 4.505 9 4 C8.7525 4.825 8.505 5.65 8.25 6.5 C6.8113272 10.52828385 4.9642314 14.20964722 3 18 C2.66226562 18.70382813 2.32453125 19.40765625 1.9765625 20.1328125 C0.91565047 22.16127629 -0.31454639 23.46776944 -2 25 C-3.32 24.34 -4.64 23.68 -6 23 C-5.34 23 -4.68 23 -4 23 C-3.87882812 22.24976563 -3.75765625 21.49953125 -3.6328125 20.7265625 C-2.65368483 14.74635195 -1.59748373 8.79709459 -0.3671875 2.86328125 C0.03222441 1.15299767 0.03222441 1.15299767 0 0 Z " fill="#35537E" transform="translate(292,123)"/>
<path d="M0 0 C0 1.32 0 2.64 0 4 C-2.31 4.66 -4.62 5.32 -7 6 C-7 7.65 -7 9.3 -7 11 C-4.36 10.34 -1.72 9.68 1 9 C1.33 10.32 1.66 11.64 2 13 C0.02 13.66 -1.96 14.32 -4 15 C-4 16.65 -4 18.3 -4 20 C-0.7 19.34 2.6 18.68 6 18 C6.33 19.32 6.66 20.64 7 22 C5.6293189 22.51172094 4.25315925 23.00877492 2.875 23.5 C2.10929687 23.7784375 1.34359375 24.056875 0.5546875 24.34375 C-2.37413202 25.09610731 -4.98824867 25.10475657 -8 25 C-9.0070436 21.8980736 -10.00440805 18.79311902 -11 15.6875 C-11.28617188 14.80642578 -11.57234375 13.92535156 -11.8671875 13.01757812 C-12.13789063 12.17001953 -12.40859375 11.32246094 -12.6875 10.44921875 C-12.93886719 9.66893311 -13.19023437 8.88864746 -13.44921875 8.0847168 C-14 6 -14 6 -14 3 C-12.4188708 2.49307308 -10.83498617 1.99473557 -9.25 1.5 C-7.92742187 1.08234375 -7.92742187 1.08234375 -6.578125 0.65625 C-4 0 -4 0 0 0 Z " fill="#ECF0F2" transform="translate(216,121)"/>
<path d="M0 0 C0.66 0.33 1.32 0.66 2 1 C2.4921875 2.890625 2.4921875 2.890625 2.875 5.25 C3.74117393 9.44094922 4.76209925 12.03192432 8 15 C11.12133744 16.34772903 11.12133744 16.34772903 14 17 C12.01371893 18.32418738 9.99187963 19.59664267 7.9375 20.8125 C3.4826891 24.12991238 2.90719275 27.70804232 2 33 C0 31 0 31 -0.75 27.625 C-2.31463161 23.08756832 -3.77651737 22.15158549 -8 20 C-10.32655 19.18407565 -12.59620378 18.57691109 -15 18 C-15 17.67 -15 17.34 -15 17 C-14.38511719 16.89042969 -13.77023438 16.78085938 -13.13671875 16.66796875 C-12.32847656 16.50941406 -11.52023438 16.35085937 -10.6875 16.1875 C-9.88699219 16.03667969 -9.08648437 15.88585937 -8.26171875 15.73046875 C-5.72396085 14.91084746 -4.67001147 14.04793455 -3 12 C-1.0542738 8.1085476 -0.5056548 4.29806579 0 0 Z " fill="#E6EAED" transform="translate(147,232)"/>
<path d="M0 0 C3.3 0 6.6 0 10 0 C9.360625 0.495 8.72125 0.99 8.0625 1.5 C5.18484731 4.98806387 5.29769264 7.53461041 5 12 C6.98 11.67 8.96 11.34 11 11 C11.66 9.02 12.32 7.04 13 5 C13.66 5 14.32 5 15 5 C15.28571429 12.42857143 15.28571429 12.42857143 13 16 C13.66 16.94875 14.32 17.8975 15 18.875 C17 22 17 22 17 24 C14.8125 24.5 14.8125 24.5 12 24 C10.4610868 22.04575512 9.29691519 20.03371633 8.11328125 17.84765625 C7.12923023 15.84157239 7.12923023 15.84157239 5 15 C5 17.97 5 20.94 5 24 C3.35 24 1.7 24 0 24 C0 16.08 0 8.16 0 0 Z " fill="#EBF0F3" transform="translate(243,116)"/>
<path d="M0 0 C0 1.32 0 2.64 0 4 C-2.64 4.33 -5.28 4.66 -8 5 C-8 6.98 -8 8.96 -8 11 C-3.545 10.505 -3.545 10.505 1 10 C1 11.32 1 12.64 1 14 C-1.64 14 -4.28 14 -7 14 C-6.67 15.65 -6.34 17.3 -6 19 C-2.7 19.33 0.6 19.66 4 20 C4 21.32 4 22.64 4 24 C-0.95 24.33 -5.9 24.66 -11 25 C-11.99 17.08 -12.98 9.16 -14 1 C-3.875 -0.125 -3.875 -0.125 0 0 Z " fill="#E8EDEF" transform="translate(236,117)"/>
<path d="M0 0 C-0.1875 1.8125 -0.1875 1.8125 -1 4 C-3.5625 5.75 -3.5625 5.75 -6 7 C-5.34 8.32 -4.68 9.64 -4 11 C-3.21625 10.505 -2.4325 10.01 -1.625 9.5 C1 8 1 8 3 8 C3.33 9.32 3.66 10.64 4 12 C2.02 12.99 0.04 13.98 -2 15 C-1.67 15.99 -1.34 16.98 -1 18 C-0.278125 17.855625 0.44375 17.71125 1.1875 17.5625 C3.0625 17.1875 4.9375 16.8125 6.8125 16.4375 C7.534375 16.293125 8.25625 16.14875 9 16 C8.7734375 17.828125 8.7734375 17.828125 8 20 C6.0390625 21.484375 6.0390625 21.484375 3.625 22.75 C2.83351562 23.17796875 2.04203125 23.6059375 1.2265625 24.046875 C-1 25 -1 25 -4 25 C-5.54074107 22.26070622 -7.05392858 19.50712161 -8.5625 16.75 C-9.00013672 15.97269531 -9.43777344 15.19539062 -9.88867188 14.39453125 C-10.29794922 13.64042969 -10.70722656 12.88632813 -11.12890625 12.109375 C-11.51119385 11.41811523 -11.89348145 10.72685547 -12.28735352 10.01464844 C-13.1536897 7.56551991 -12.94973699 6.39164538 -12 4 C-10.29296875 2.734375 -10.29296875 2.734375 -8.1875 1.75 C-7.50042969 1.41484375 -6.81335938 1.0796875 -6.10546875 0.734375 C-4 0 -4 0 0 0 Z " fill="#E6EBED" transform="translate(196,129)"/>
<path d="M0 0 C12.87 0 25.74 0 39 0 C39.495 2.475 39.495 2.475 40 5 C26.47 5 12.94 5 -1 5 C-0.67 3.35 -0.34 1.7 0 0 Z " fill="#54955E" transform="translate(211,227)"/>
<path d="M0 0 C1.65 0 3.3 0 5 0 C5.50865712 3.56059982 6.01371264 7.115578 6.4375 10.6875 C6.80828658 13.88341018 6.80828658 13.88341018 8.0625 16.0625 C9.3589057 18.74173845 9.13326354 21.06820212 9 24 C8.34 23.67 7.68 23.34 7 23 C7.33 22.01 7.66 21.02 8 20 C6.9275 20.515625 5.855 21.03125 4.75 21.5625 C2.40797154 22.56284009 1.20196374 23.01062967 -1.375 22.875 C-3 22 -3 22 -4 19 C-0.375 16 -0.375 16 3 16 C2.67 14.68 2.34 13.36 2 12 C-1.96 13.98 -1.96 13.98 -6 16 C-6.66 14.35 -7.32 12.7 -8 11 C-6.5459375 10.1028125 -6.5459375 10.1028125 -5.0625 9.1875 C-1.76947958 7.28872491 -1.76947958 7.28872491 -1 4 C-2.65 4.33 -4.3 4.66 -6 5 C-6 4.34 -6 3.68 -6 3 C-5.195625 2.87625 -4.39125 2.7525 -3.5625 2.625 C-2.716875 2.41875 -1.87125 2.2125 -1 2 C-0.67 1.34 -0.34 0.68 0 0 Z " fill="#274B7E" transform="translate(197,125)"/>
<path d="M0 0 C1.64510941 0.00015915 3.29022379 0.00585551 4.93530273 0.01586914 C6.23164894 0.01799156 6.23164894 0.01799156 7.55418396 0.02015686 C10.32578941 0.025773 13.09731528 0.0383282 15.86889648 0.05102539 C17.74324428 0.05603831 19.61759334 0.06060158 21.49194336 0.06469727 C26.09679192 0.07574767 30.70158069 0.09302309 35.30639648 0.11352539 C35.30639648 1.76352539 35.30639648 3.41352539 35.30639648 5.11352539 C22.43639648 5.11352539 9.56639648 5.11352539 -3.69360352 5.11352539 C-4.02360352 3.79352539 -4.35360352 2.47352539 -4.69360352 1.11352539 C-3.69360352 0.11352539 -3.69360352 0.11352539 0 0 Z " fill="#2B4B74" transform="translate(214.693603515625,272.886474609375)"/>
<path d="M0 0 C0.433125 0.45375 0.86625 0.9075 1.3125 1.375 C3.10798342 3.20024334 3.10798342 3.20024334 6 5 C6.29296875 7.6015625 6.29296875 7.6015625 6.1875 10.625 C6.14689453 12.12933594 6.14689453 12.12933594 6.10546875 13.6640625 C6.07066406 14.43492187 6.03585937 15.20578125 6 16 C4.25728062 13.702779 2.60088848 11.40133271 1 9 C-3.49664206 9.41829228 -7.40603221 10.42945288 -11.6875 11.875 C-36.63138256 19.66818566 -68.79521562 20.93656542 -93 10 C-89.49614478 8.83204826 -88.5115844 9.24384096 -85.0625 10.3125 C-73.69815442 13.82636251 -62.29746632 14.40439894 -50.5 14.375 C-49.75387451 14.37512085 -49.00774902 14.3752417 -48.23901367 14.37536621 C-22.9286485 14.55219642 -22.9286485 14.55219642 -1 4 C-0.3574765 1.93125966 -0.3574765 1.93125966 0 0 Z " fill="#617A9D" transform="translate(300,350)"/>
<path d="M0 0 C0 0.99 0 1.98 0 3 C-1.98 3.99 -1.98 3.99 -4 5 C-4.32152515 8.53677664 -4.4131192 10.3962104 -2.375 13.375 C0.67785921 15.46379841 2.36968224 15.54068562 6 15 C7.95625978 14.04451019 7.95625978 14.04451019 9 12 C9.73041853 8.38976901 9.73041853 8.38976901 10 5 C11.32 5.33 12.64 5.66 14 6 C14.61364554 13.24101736 14.61364554 13.24101736 11.625 16.9375 C7.53372843 20.15207052 4.69106307 20.53183995 -0.4453125 20.46484375 C-4.20473812 19.78078924 -5.81647623 18.19259572 -8 15.140625 C-9.74719774 11.40052984 -9.90456928 8.0048452 -9 4 C-6.47371562 0.16379039 -4.5024696 -0.5002744 0 0 Z " fill="#E7EDF0" transform="translate(146,179)"/>
<path d="M0 0 C0.33 0 0.66 0 1 0 C1.22786458 2.05078125 1.45572917 4.1015625 1.68359375 6.15234375 C1.81886614 8.01140229 1.81886614 8.01140229 3 9 C3.32008362 14.08368104 3.20287441 19.03814305 2 24 C1.89532264 26.90951733 1.89532264 26.90951733 2.50048828 29.33764648 C3.03320169 32.1769621 3.06579524 34.71208667 2.9921875 37.59765625 C2.97542969 38.64630859 2.95867187 39.69496094 2.94140625 40.77539062 C2.89705307 42.97087291 2.84494035 45.16621184 2.78515625 47.36132812 C2.77097656 48.40869141 2.75679688 49.45605469 2.7421875 50.53515625 C2.7201123 51.487854 2.69803711 52.44055176 2.67529297 53.42211914 C3.05637715 56.4475837 4.17522426 57.63017359 6 60 C5.67 60.99 5.34 61.98 5 63 C5.61875 63.309375 6.2375 63.61875 6.875 63.9375 C8.25 64.625 9.625 65.3125 11 66 C11.625 68.5625 11.625 68.5625 12 71 C10.9285712 70.15706034 9.86841532 69.29979332 8.8125 68.4375 C8.22082031 67.96183594 7.62914062 67.48617187 7.01953125 66.99609375 C2.03911186 62.0734742 -0.28727814 58.9658742 -0.56762695 51.88110352 C-0.56684034 49.46355987 -0.5388873 47.0459203 -0.48828125 44.62890625 C-0.48120651 43.35144028 -0.47413177 42.0739743 -0.46684265 40.75779724 C-0.44367094 37.38204623 -0.39885521 34.00802421 -0.34332275 30.63275146 C-0.29192345 27.18044883 -0.2692849 23.72796664 -0.24414062 20.27539062 C-0.18911961 13.51645396 -0.10552632 6.75832668 0 0 Z " fill="#3D814D" transform="translate(308,241)"/>
<path d="M0 0 C3.04983521 -0.32279968 3.04983521 -0.32279968 7.02001953 -0.2487793 C8.10310394 -0.23480606 8.10310394 -0.23480606 9.20806885 -0.22055054 C11.60012165 -0.18611277 13.99117556 -0.13023261 16.3828125 -0.07421875 C18.03903056 -0.04619318 19.69527169 -0.01950197 21.35153198 0.00590515 C25.71498251 0.07643943 30.07788351 0.16514469 34.44091797 0.25756836 C38.89141212 0.34865088 43.34218627 0.42264126 47.79296875 0.49804688 C56.52901222 0.64858561 65.26454915 0.81831139 74 1 C74 1.66 74 2.32 74 3 C48.92 3 23.84 3 -2 3 C-1.34 2.01 -0.68 1.02 0 0 Z " fill="#FBFDFB" transform="translate(213,291)"/>
<path d="M0 0 C0.33 0 0.66 0 1 0 C1 40.26 1 80.52 1 122 C0.67 122 0.34 122 0 122 C0 87.35 0 52.7 0 17 C-0.99 17.33 -1.98 17.66 -3 18 C-2.855625 17.19175781 -2.71125 16.38351563 -2.5625 15.55078125 C-2.376875 14.48214844 -2.19125 13.41351563 -2 12.3125 C-1.814375 11.25675781 -1.62875 10.20101562 -1.4375 9.11328125 C-0.93431592 6.05656596 -0.93431592 6.05656596 -1 3.16796875 C-1 1 -1 1 0 0 Z M-4 10 C-3.01 10.495 -3.01 10.495 -2 11 C-2.99 11.495 -2.99 11.495 -4 12 C-4 11.34 -4 10.68 -4 10 Z M-7 13 C-6.34 13.33 -5.68 13.66 -5 14 C-5.99 14 -6.98 14 -8 14 C-7.67 13.67 -7.34 13.34 -7 13 Z " fill="#B8CEC2" transform="translate(307,202)"/>
<path d="M0 0 C24.42 0 48.84 0 74 0 C71.0918397 2.9081603 68.96845126 2.97429645 64.8994751 3.08229065 C63.68257996 3.06230515 62.46568481 3.04231964 61.21191406 3.02172852 C60.53833359 3.01212097 59.86475311 3.00251343 59.17076111 2.99261475 C56.9522726 2.95972778 54.73398741 2.91935667 52.515625 2.87890625 C50.9743521 2.85459504 49.43307176 2.83075199 47.89178467 2.80735779 C43.84095759 2.74461638 39.7902629 2.67552174 35.73956299 2.60510254 C31.60378025 2.53432914 27.46790387 2.46956612 23.33203125 2.40429688 C15.22125046 2.27541275 7.11059967 2.13981653 -1 2 C-0.67 1.34 -0.34 0.68 0 0 Z " fill="#FDFCFD" transform="translate(212,252)"/>
<path d="M0 0 C8.57142857 0.85714286 8.57142857 0.85714286 12 3 C12.07427838 6.34252724 12.06546953 8.8035914 11 12 C11.66 12.33 12.32 12.66 13 13 C12.38722388 15.96175123 11.74627478 17.38058783 10 20 C9.96778812 21.9971365 9.94083641 23.99555573 9.99609375 25.9921875 C10.00082399 28.42353155 9.58849336 30.64602657 9 33 C8.34 33 7.68 33 7 33 C7.00112793 32.31486328 7.00225586 31.62972656 7.00341797 30.92382812 C6.99121817 27.78158368 6.93345044 24.64171095 6.875 21.5 C6.87886719 19.88351563 6.87886719 19.88351563 6.8828125 18.234375 C6.69628935 10.58692602 5.11654189 6.62137402 0 1 C0 0.67 0 0.34 0 0 Z " fill="#74AC57" transform="translate(301,193)"/>
<path d="M0 0 C1.87971032 1.7857248 3.35781256 3.50093759 4.875 5.625 C7.27476729 8.30709286 8.48452117 8.70704343 12 9 C10 11 10 11 7.5625 11.625 C4.05886279 13.50500046 3.66109298 15.65450688 2.48046875 19.3203125 C2.32191406 19.87460937 2.16335938 20.42890625 2 21 C1.34 21 0.68 21 0 21 C-0.2475 20.071875 -0.495 19.14375 -0.75 18.1875 C-2.10418957 14.73431661 -2.84761359 13.80136366 -6 12 C-7.64797236 11.28837557 -9.31165408 10.60968047 -11 10 C-8.90840356 8.8795019 -7.23807072 8.0350104 -4.875 7.6875 C-2.72150127 7.14365668 -2.72150127 7.14365668 -1.8125 4.5625 C-1.544375 3.716875 -1.27625 2.87125 -1 2 C-0.67 1.34 -0.34 0.68 0 0 Z " fill="#EBF2EB" transform="translate(350,242)"/>
<path d="M0 0 C0.33 0 0.66 0 1 0 C0.99214478 1.46022583 0.99214478 1.46022583 0.98413086 2.94995117 C0.96597883 6.574779 0.95453077 10.19960283 0.94506836 13.82446289 C0.94005144 15.39087602 0.93323638 16.9572845 0.92456055 18.52368164 C0.91237906 20.78012239 0.90674519 23.03650102 0.90234375 25.29296875 C0.89718246 25.98899704 0.89202118 26.68502533 0.88670349 27.40214539 C0.88628336 31.07499472 1.19503423 34.42092958 2 38 C1.50972399 44.31522194 -0.66822946 50.52570896 -2.5 56.5625 C-2.71350098 57.27768799 -2.92700195 57.99287598 -3.14697266 58.72973633 C-3.70379287 60.50671725 -4.3454557 62.25664642 -5 64 C-5.99 64.495 -5.99 64.495 -7 65 C-6.71080605 56.6856738 -5.50526555 49.04194572 -3.45996094 41.00219727 C-3.28754883 40.32342529 -3.11513672 39.64465332 -2.9375 38.9453125 C-2.78152344 38.35250488 -2.62554687 37.75969727 -2.46484375 37.14892578 C-1.31974866 31.85526665 -0.85791951 26.59550485 -0.68359375 21.19140625 C-0.64169922 19.95068359 -0.59980469 18.70996094 -0.55664062 17.43164062 C-0.51732422 16.15482422 -0.47800781 14.87800781 -0.4375 13.5625 C-0.37272461 11.60666992 -0.37272461 11.60666992 -0.30664062 9.61132812 C-0.20102476 6.40764684 -0.09891899 3.20389389 0 0 Z " fill="#D9E6CF" transform="translate(393,234)"/>
<path d="M0 0 C0.99 0 1.98 0 3 0 C4.17154293 2.28929053 5.33738074 4.58118362 6.5 6.875 C6.83386719 7.52597656 7.16773438 8.17695313 7.51171875 8.84765625 C10 13.7734375 10 13.7734375 10 16 C10.99 16.33 11.98 16.66 13 17 C13 17.99 13 18.98 13 20 C9.1496895 22.56687367 7.41430237 21.83288724 3 21 C3 20.67 3 20.34 3 20 C4.98 19.34 6.96 18.68 9 18 C8.37351563 17.79246094 7.74703125 17.58492187 7.1015625 17.37109375 C4.55777558 16.4121583 2.29954687 15.45567646 0 14 C-1.4375 10.375 -1.4375 10.375 -2 7 C-3.95216435 5.04783565 -5.53199953 4.15173355 -8 3 C-3.25 2.875 -3.25 2.875 -1 4 C-0.67 2.68 -0.34 1.36 0 0 Z " fill="#2D4D79" transform="translate(182,138)"/>
<path d="M0 0 C15.84 0.33 31.68 0.66 48 1 C47.67 1.66 47.34 2.32 47 3 C41.91734888 4.69421704 36.50753471 4.1859169 31.18823242 4.18530273 C29.10118296 4.18746002 27.01468826 4.20554026 24.92773438 4.22460938 C16.9205011 4.25908783 8.75025295 4.24905519 1 2 C0.67 1.34 0.34 0.68 0 0 Z " fill="#F8FBFB" transform="translate(222,390)"/>
<path d="M0 0 C0.86625 0.495 1.7325 0.99 2.625 1.5 C6.10749623 3.0477761 8.24759458 3.26802896 12 3 C12.33 2.34 12.66 1.68 13 1 C13.66 1 14.32 1 15 1 C15.495 2.485 15.495 2.485 16 4 C9.94771344 6.38906048 3.21319763 7.96395929 -3.125 6.0625 C-3.74375 5.711875 -4.3625 5.36125 -5 5 C-5.33 5.99 -5.66 6.98 -6 8 C-6 6.68 -6 5.36 -6 4 C-10.95 4.33 -15.9 4.66 -21 5 C-21 4.34 -21 3.68 -21 3 C-25.29 3 -29.58 3 -34 3 C-34 2.67 -34 2.34 -34 2 C-22.78 2 -11.56 2 0 2 C0 1.34 0 0.68 0 0 Z " fill="#A3ABBD" transform="translate(281,213)"/>
<path d="M0 0 C3.36533514 2.33703829 3.93736887 3.68684437 4.75 7.75 C4.87375 9.35875 4.87375 9.35875 5 11 C4.34 11 3.68 11 3 11 C2.71125 10.360625 2.4225 9.72125 2.125 9.0625 C1.17176549 6.84793921 1.17176549 6.84793921 -1 6 C-1.33 7.98 -1.66 9.96 -2 12 C-3.875 11.8125 -3.875 11.8125 -6 11 C-7.25 8.4375 -7.25 8.4375 -8 6 C-9.98 6.66 -11.96 7.32 -14 8 C-12.65684052 3.97052156 -10.61475957 3.11673332 -7.0625 1.0234375 C-4.44201432 -0.27687926 -2.86417299 -0.71604325 0 0 Z " fill="#E4EAEE" transform="translate(178,142)"/>
<path d="M0 0 C0 0.99 0 1.98 0 3 C-1.98 3.66 -3.96 4.32 -6 5 C-6 6.65 -6 8.3 -6 10 C-2.7 9.34 0.6 8.68 4 8 C4.33 9.32 4.66 10.64 5 12 C-0.10334017 13.905247 -4.46342706 15.42589023 -10 15 C-10.66 12.36 -11.32 9.72 -12 7 C-11.34 7 -10.68 7 -10 7 C-9.67 7.99 -9.34 8.98 -9 10 C-9 7.03 -9 4.06 -9 1 C-3.375 -1.125 -3.375 -1.125 0 0 Z " fill="#D6DCE1" transform="translate(218,131)"/>
<path d="M0 0 C1.65 0.33 3.3 0.66 5 1 C3.76226808 3.61065302 2.51066073 6.21294605 1.25 8.8125 C0.90195312 9.55048828 0.55390625 10.28847656 0.1953125 11.04882812 C-3.22749122 18.05289869 -3.22749122 18.05289869 -7 20 C-10.25 20.1875 -10.25 20.1875 -13 20 C-11.68 18.68 -10.36 17.36 -9 16 C-9.66 15.67 -10.32 15.34 -11 15 C-10.41734375 14.80664062 -9.8346875 14.61328125 -9.234375 14.4140625 C-6.08779592 12.42269602 -4.86170239 9.61223913 -3.25 6.375 C-2.93417969 5.76398438 -2.61835938 5.15296875 -2.29296875 4.5234375 C-1.51824482 3.02094261 -0.75770329 1.51114982 0 0 Z " fill="#E5EBEF" transform="translate(313,133)"/>
<path d="M0 0 C2.86724686 0.57344937 3.8614515 0.8614515 6 3 C6 3.99 6 4.98 6 6 C6.99 6.33 7.98 6.66 9 7 C9.73046875 8.84765625 9.73046875 8.84765625 10.1875 11.0625 C10.34605469 11.79597656 10.50460937 12.52945313 10.66796875 13.28515625 C10.77753906 13.85105469 10.88710938 14.41695312 11 15 C11.99 15 12.98 15 14 15 C14 14.34 14 13.68 14 13 C14.66 13 15.32 13 16 13 C16 13.99 16 14.98 16 16 C17.98 15.67 19.96 15.34 22 15 C22 15.66 22 16.32 22 17 C22.66 17 23.32 17 24 17 C24 17.66 24 18.32 24 19 C26.97 19.33 29.94 19.66 33 20 C33 20.99 33 21.98 33 23 C35.31 23.99 37.62 24.98 40 26 C40 26.66 40 27.32 40 28 C34.17669729 26.23268507 29.08367922 23.51129559 23.73046875 20.65625 C20.94402642 19.26170286 18.50545807 18.72657882 15.4296875 18.28515625 C11.6453012 17.5291646 10.04911136 16.41048856 7.71484375 13.33984375 C6.76182328 11.88993813 5.83624768 10.42165866 4.9375 8.9375 C4.45345703 8.19177734 3.96941406 7.44605469 3.47070312 6.67773438 C0 1.27286289 0 1.27286289 0 0 Z " fill="#2E5580" transform="translate(289,176)"/>
<path d="M0 0 C11.22 0 22.44 0 34 0 C34 0.99 34 1.98 34 3 C22.78 3 11.56 3 0 3 C0 2.01 0 1.02 0 0 Z " fill="#274067" transform="translate(247,199)"/>
<path d="M0 0 C1.65 0.33 3.3 0.66 5 1 C5.68359375 2.671875 5.68359375 2.671875 6 5 C4.78515625 7.578125 4.78515625 7.578125 3.0625 10.25 C2.49660156 11.14203125 1.93070312 12.0340625 1.34765625 12.953125 C0.90292969 13.62859375 0.45820313 14.3040625 0 15 C-0.33 14.01 -0.66 13.02 -1 12 C-2.65 12 -4.3 12 -6 12 C-6.33 10.35 -6.66 8.7 -7 7 C-6.401875 6.773125 -5.80375 6.54625 -5.1875 6.3125 C-2.43648112 4.66188867 -1.47515363 2.8027919 0 0 Z " fill="#F1F3F4" transform="translate(349,170)"/>
<path d="M0 0 C10.89 0 21.78 0 33 0 C33 0.99 33 1.98 33 3 C22.11 3 11.22 3 0 3 C0 2.01 0 1.02 0 0 Z " fill="#2D4672" transform="translate(247,212)"/>
<path d="M0 0 C10.89 0 21.78 0 33 0 C33 0.99 33 1.98 33 3 C22.11 3 11.22 3 0 3 C0 2.01 0 1.02 0 0 Z " fill="#2B446D" transform="translate(247,206)"/>
<path d="M0 0 C0.33 1.32 0.66 2.64 1 4 C-1.57637588 5.36907416 -4.15968104 6.72028455 -6.75 8.0625 C-7.47960937 8.45244141 -8.20921875 8.84238281 -8.9609375 9.24414062 C-10.02441406 9.79038086 -10.02441406 9.79038086 -11.109375 10.34765625 C-11.75874023 10.68804932 -12.40810547 11.02844238 -13.07714844 11.37915039 C-15.47852917 12.15450732 -16.69520455 12.00177569 -19 11 C-19.33 10.01 -19.66 9.02 -20 8 C-17.2336466 6.65722268 -14.46123789 5.32744772 -11.6875 4 C-10.90181641 3.6184375 -10.11613281 3.236875 -9.30664062 2.84375 C-8.54931641 2.4828125 -7.79199219 2.121875 -7.01171875 1.75 C-6.31522217 1.41484375 -5.61872559 1.0796875 -4.90112305 0.734375 C-3 0 -3 0 0 0 Z " fill="#DEE7E9" transform="translate(364,188)"/>
<path d="M0 0 C0 0.66 0 1.32 0 2 C5.61 2 11.22 2 17 2 C17 2.33 17 2.66 17 3 C-0.16 3 -17.32 3 -35 3 C-35 2.67 -35 2.34 -35 2 C-30.691741 0.99866637 -26.40323048 0.67835963 -22 0.4375 C-21.25758057 0.3950415 -20.51516113 0.35258301 -19.75024414 0.30883789 C-13.16178338 -0.04216061 -6.5977469 -0.10326908 0 0 Z " fill="#FBFDFC" transform="translate(271,241)"/>
<path d="M0 0 C6.75 0.75 6.75 0.75 9 3 C9.125 6.625 9.125 6.625 9 10 C8.67 10 8.34 10 8 10 C8 8.02 8 6.04 8 4 C5.64214682 4.89335797 5.64214682 4.89335797 4.875 8.0625 C4.58625 9.031875 4.2975 10.00125 4 11 C2.02 11 0.04 11 -2 11 C-2.25 3.375 -2.25 3.375 0 0 Z " fill="#D8DFE3" transform="translate(250,117)"/>
<path d="M0 0 C2.64 1.32 5.28 2.64 8 4 C4.61227103 8.69159716 1.21814817 13.0299782 -3 17 C-3 16.01 -3 15.02 -3 14 C-2.34 14 -1.68 14 -1 14 C-2.66924071 10.95865509 -2.66924071 10.95865509 -5 10 C-3.35 6.7 -1.7 3.4 0 0 Z " fill="#2B4F7F" transform="translate(316,137)"/>
<path d="M0 0 C0.99 0.33 1.98 0.66 3 1 C3.25 3.8125 3.25 3.8125 3 7 C1.69855198 8.04115841 0.36161311 9.03886134 -1 10 C-1.72693904 11.97888961 -2.39816251 13.97954558 -3 16 C-3.66 16.66 -4.32 17.32 -5 18 C-7.125 17.625 -7.125 17.625 -9 17 C-8.690625 16.484375 -8.38125 15.96875 -8.0625 15.4375 C-6.70940713 12.33334577 -6.38640576 9.34884993 -6 6 C-4.35 6 -2.7 6 -1 6 C-0.67 4.02 -0.34 2.04 0 0 Z " fill="#EAEEF1" transform="translate(331,147)"/>
<path d="M0 0 C1.41925781 -0.01836914 1.41925781 -0.01836914 2.8671875 -0.03710938 C11.7993663 -0.05592717 11.7993663 -0.05592717 15.625 2.1875 C15.955 2.8475 16.285 3.5075 16.625 4.1875 C6.395 3.8575 -3.835 3.5275 -14.375 3.1875 C-12.03406002 -1.49437996 -4.536617 0.00306528 0 0 Z " fill="#F7F8F7" transform="translate(249.375,94.8125)"/>
<path d="M0 0 C3.38645281 3.38645281 6.62969936 6.74966346 9.8125 10.3125 C10.60269531 11.19550781 11.39289063 12.07851563 12.20703125 12.98828125 C12.79871094 13.65214844 13.39039063 14.31601562 14 15 C13.67 15.66 13.34 16.32 13 17 C10.00675737 15.9024777 9.15389099 15.32317108 7.75 12.375 C7.5025 11.59125 7.255 10.8075 7 10 C5.68 10 4.36 10 3 10 C2.34 14.29 1.68 18.58 1 23 C0.67 23 0.34 23 0 23 C0 15.41 0 7.82 0 0 Z " fill="#214D76" transform="translate(309,301)"/>
<path d="M0 0 C3.3 0.99 6.6 1.98 10 3 C9.67 4.32 9.34 5.64 9 7 C5.33333333 7 1.66666667 7 -2 7 C-3.66965451 7.31802943 -5.33678518 7.64984951 -7 8 C-10 3.25 -10 3.25 -10 1 C-5.545 1.99 -5.545 1.99 -1 3 C-0.67 2.01 -0.34 1.02 0 0 Z " fill="#D6DCE1" transform="translate(166,165)"/>
<path d="M0 0 C-0.61875 0.45375 -1.2375 0.9075 -1.875 1.375 C-4.05919833 2.97108919 -4.05919833 2.97108919 -6 5 C-8.06118757 5.62063383 -10.15036682 6.15042538 -12.25 6.625 C-13.36890625 6.88539063 -14.4878125 7.14578125 -15.640625 7.4140625 C-18.84216519 7.97247067 -21.75894614 8.10803513 -25 8 C-25 7.67 -25 7.34 -25 7 C-26.65 6.67 -28.3 6.34 -30 6 C-30 5.67 -30 5.34 -30 5 C-29.36497559 4.88930176 -28.72995117 4.77860352 -28.07568359 4.66455078 C-25.1746067 4.1560819 -22.27481687 3.64060426 -19.375 3.125 C-18.37597656 2.95097656 -17.37695312 2.77695312 -16.34765625 2.59765625 C-12.25073619 1.86509438 -8.36897354 1.12299118 -4.4140625 -0.1953125 C-2 -1 -2 -1 0 0 Z " fill="#D3DAE0" transform="translate(294,385)"/>
<path d="M0 0 C4.53134634 0.19744428 8.07208155 0.46976089 12.0625 2.75 C14 5 14 5 14.3125 7.75 C14.1578125 8.86375 14.1578125 8.86375 14 10 C12.02 10.99 12.02 10.99 10 12 C9.67 11.01 9.34 10.02 9 9 C8.34 8.67 7.68 8.34 7 8 C7 6.68 7 5.36 7 4 C6.34 4 5.68 4 5 4 C4.67 4.66 4.34 5.32 4 6 C2.68 5.67 1.36 5.34 0 5 C0 3.35 0 1.7 0 0 Z " fill="#1A472F" transform="translate(335,252)"/>
<path d="M0 0 C5 7.5 5 7.5 5 11 C5.99 11.33 6.98 11.66 8 12 C5.66785852 13.20628008 3.50357861 14.1654738 1 15 C-0.44870619 16.85804317 -0.44870619 16.85804317 -1.6875 19.0625 C-2.12449219 19.79597656 -2.56148438 20.52945312 -3.01171875 21.28515625 C-3.50091797 22.13400391 -3.50091797 22.13400391 -4 23 C-4.33 22.34 -4.66 21.68 -5 21 C-4.22265625 18.8359375 -4.22265625 18.8359375 -3.0625 16.375 C-2.49208984 15.14910156 -2.49208984 15.14910156 -1.91015625 13.8984375 C-1.60980469 13.27195312 -1.30945313 12.64546875 -1 12 C-1.99 11.67 -2.98 11.34 -4 11 C-3.34 10.67 -2.68 10.34 -2 10 C-1.31068656 7.65092125 -1.31068656 7.65092125 -0.875 4.9375 C-0.70742188 4.01839844 -0.53984375 3.09929687 -0.3671875 2.15234375 C-0.24601562 1.44207031 -0.12484375 0.73179687 0 0 Z " fill="#CAE1C8" transform="translate(346,298)"/>
<path d="M0 0 C-1.65 1.32 -3.3 2.64 -5 4 C-2.69 4.33 -0.38 4.66 2 5 C2 5.33 2 5.66 2 6 C-4.69675136 7.03026944 -11.2314676 7.10152799 -18 7 C-17.01 6.67 -16.02 6.34 -15 6 C-15 4.35 -15 2.7 -15 1 C-13.88625 1.020625 -12.7725 1.04125 -11.625 1.0625 C-7.53220671 0.9919346 -4.21798098 -0.09169524 0 0 Z " fill="#28506E" transform="translate(357,198)"/>
<path d="M0 0 C6.6 0 13.2 0 20 0 C22.49388574 4.98777148 21.88836125 6.66983248 21 12 C20.67 12 20.34 12 20 12 C19.67 9.69 19.34 7.38 19 5 C18.01 5.33 17.02 5.66 16 6 C15.34 5.34 14.68 4.68 14 4 C13.01 4.495 13.01 4.495 12 5 C11.34 4.34 10.68 3.68 10 3 C7.57284794 2.32059533 7.57284794 2.32059533 4.875 1.875 C3.96492188 1.70742187 3.05484375 1.53984375 2.1171875 1.3671875 C1.41851562 1.24601563 0.71984375 1.12484375 0 1 C0 0.67 0 0.34 0 0 Z " fill="#9FA9BC" transform="translate(264,167)"/>
<path d="M0 0 C5.81665393 3.46524064 5.81665393 3.46524064 6.75 6.1875 C6.87375 7.0846875 6.87375 7.0846875 7 8 C7.66 8.33 8.32 8.66 9 9 C7.6350365 15.57664234 7.6350365 15.57664234 4.5625 17.625 C3.2940625 18.305625 3.2940625 18.305625 2 19 C0.9590934 20.64142963 -0.04504326 22.30712215 -1 24 C-3.91765 25.9451 -5.62537285 26.45276317 -9 27 C-8.360625 26.360625 -7.72125 25.72125 -7.0625 25.0625 C-6.61519531 24.61132812 -6.16789062 24.16015625 -5.70703125 23.6953125 C-4.38595333 22.38330377 -3.04628278 21.09000157 -1.69921875 19.8046875 C-0.89097656 19.02351563 -0.08273437 18.24234375 0.75 17.4375 C1.52859375 16.69371094 2.3071875 15.94992187 3.109375 15.18359375 C5.01507447 12.98258961 5.92434166 11.90411635 6 9 C4.81627402 7.06866044 4.81627402 7.06866044 3.0625 5.375 C0 2.17995444 0 2.17995444 0 0 Z " fill="#467771" transform="translate(326,320)"/>
<path d="M0 0 C2.04136395 -0.05451714 4.08315856 -0.09302485 6.125 -0.125 C7.83042969 -0.15980469 7.83042969 -0.15980469 9.5703125 -0.1953125 C13.05757767 0.00327891 15.7553862 0.7475199 19 2 C19 2.33 19 2.66 19 3 C7.66560627 4.17759935 -3.6184852 4.10492107 -15 4 C-15 3.67 -15 3.34 -15 3 C-6.585 2.505 -6.585 2.505 2 2 C1.34 1.34 0.68 0.68 0 0 Z " fill="#9DACC5" transform="translate(262,202)"/>
<path d="M0 0 C10.56 0 21.12 0 32 0 C31.67 0.99 31.34 1.98 31 3 C27.06690266 2.90636389 23.13435915 2.80024855 19.2019043 2.68261719 C17.2070464 2.62555908 15.2119146 2.57835558 13.21679688 2.53125 C11.96318359 2.49257813 10.70957031 2.45390625 9.41796875 2.4140625 C8.26063232 2.3826416 7.1032959 2.3512207 5.91088867 2.31884766 C3 2 3 2 0 0 Z " fill="#8A95A1" transform="translate(234,394)"/>
<path d="M0 0 C0.33 0.66 0.66 1.32 1 2 C-4.63468283 8.7116188 -10.75936424 14.86092974 -17 21 C-17.33 20.01 -17.66 19.02 -18 18 C-16.12973998 15.93302978 -14.25404816 13.87145703 -12.375 11.8125 C-11.59189453 10.9452832 -11.59189453 10.9452832 -10.79296875 10.06054688 C-7.41255947 6.36713674 -3.91565929 3.12194457 0 0 Z " fill="#F3F7F6" transform="translate(361,340)"/>
<path d="M0 0 C0.70125 0.144375 1.4025 0.28875 2.125 0.4375 C5.07556141 1.01478375 8.03270151 1.51695141 11 2 C13.25433614 7.56069582 13.59961828 13.0785651 14 19 C11.56158876 16.56158876 11.23847249 14.81433885 10.375 11.5 C10.11460937 10.5203125 9.85421875 9.540625 9.5859375 8.53125 C9 6 9 6 9 4 C8.34 4 7.68 4 7 4 C6.67 4.66 6.34 5.32 6 6 C6 5.01 6 4.02 6 3 C5.01 3.495 5.01 3.495 4 4 C2.00039988 4.039992 -0.00047242 4.04346799 -2 4 C-1.34 2.68 -0.68 1.36 0 0 Z " fill="#76A555" transform="translate(378,204)"/>
<path d="M0 0 C7.44230094 0.54701632 14.68160944 1.54198409 22 3 C22 3.33 22 3.66 22 4 C19.36 3.67 16.72 3.34 14 3 C14 3.66 14 4.32 14 5 C14.99 5.33 15.98 5.66 17 6 C11.72 5.34 6.44 4.68 1 4 C0.67 2.68 0.34 1.36 0 0 Z " fill="#DCE3E9" transform="translate(264,96)"/>
<path d="M0 0 C2.27113803 0.14100857 4.54190725 0.28796755 6.8125 0.4375 C8.07707031 0.51871094 9.34164062 0.59992188 10.64453125 0.68359375 C14 1 14 1 17 2 C17 1.34 17 0.68 17 0 C20.23318592 1.5088201 22.35302722 2.70605444 24 6 C23.67 6.66 23.34 7.32 23 8 C22.01 8 21.02 8 20 8 C20 7.34 20 6.68 20 6 C19.16210938 5.87753906 18.32421875 5.75507813 17.4609375 5.62890625 C13.75870468 4.95615288 10.23585478 3.9935047 6.625 2.9375 C5.37976563 2.57527344 4.13453125 2.21304688 2.8515625 1.83984375 C1.91054687 1.56269531 0.96953125 1.28554687 0 1 C0 0.67 0 0.34 0 0 Z " fill="#3D5979" transform="translate(156,162)"/>
<path d="M0 0 C3.915141 3.35583515 6.0795774 7.28066362 8 12 C8 12.66 8 13.32 8 14 C8.99 14.33 9.98 14.66 11 15 C11 15.99 11 16.98 11 18 C7.1496895 20.56687367 5.41430237 19.83288724 1 19 C1 18.67 1 18.34 1 18 C2.98 17.34 4.96 16.68 7 16 C6.55011719 15.61972656 6.10023438 15.23945313 5.63671875 14.84765625 C3.58565994 12.5322605 2.82550911 10.35232698 1.8125 7.4375 C1.46832031 6.46683594 1.12414062 5.49617187 0.76953125 4.49609375 C0 2 0 2 0 0 Z " fill="#283F5D" transform="translate(184,140)"/>
<path d="M0 0 C0.33 0 0.66 0 1 0 C0.51172287 7.47834967 -0.33405548 14.68925318 -2 22 C-2.66 22 -3.32 22 -4 22 C-4.50437828 6.75656743 -4.50437828 6.75656743 0 0 Z " fill="#F0F3F5" transform="translate(108,209)"/>
<path d="M0 0 C3.12482562 -0.08687496 6.24934246 -0.14034568 9.375 -0.1875 C10.70917969 -0.22520508 10.70917969 -0.22520508 12.0703125 -0.26367188 C13.34648437 -0.27817383 13.34648437 -0.27817383 14.6484375 -0.29296875 C15.82672119 -0.31653442 15.82672119 -0.31653442 17.02880859 -0.34057617 C17.67930176 -0.22818604 18.32979492 -0.1157959 19 0 C19.66 0.99 20.32 1.98 21 3 C14.07 3 7.14 3 0 3 C0 2.01 0 1.02 0 0 Z " fill="#DEE4F3" transform="translate(248,209)"/>
<path d="M0 0 C0 0.99 0 1.98 0 3 C-1.8984375 4.71875 -1.8984375 4.71875 -4.375 6.5 C-7.29400087 8.61280063 -8.97533983 9.96300974 -11 13 C-12.32 13 -13.64 13 -15 13 C-15.33 13.99 -15.66 14.98 -16 16 C-16.99 16.66 -17.98 17.32 -19 18 C-19.99 17.67 -20.98 17.34 -22 17 C-14.94495272 10.87181364 -7.99463697 4.89594047 0 0 Z " fill="#36567E" transform="translate(172,121)"/>
<path d="M0 0 C3.63 0.33 7.26 0.66 11 1 C11 2.32 11 3.64 11 5 C6.05 5.33 1.1 5.66 -4 6 C-3.67 5.01 -3.34 4.02 -3 3 C-2.01 3 -1.02 3 0 3 C0 2.01 0 1.02 0 0 Z " fill="#D7DEE3" transform="translate(229,136)"/>
<path d="M0 0 C0.433125 0.45375 0.86625 0.9075 1.3125 1.375 C3.10798342 3.20024334 3.10798342 3.20024334 6 5 C6.29296875 7.6015625 6.29296875 7.6015625 6.1875 10.625 C6.16042969 11.62789063 6.13335937 12.63078125 6.10546875 13.6640625 C6.07066406 14.43492187 6.03585937 15.20578125 6 16 C4.25728062 13.702779 2.60088848 11.40133271 1 9 C-1.56282742 8.27034634 -1.56282742 8.27034634 -4 8 C-3.2884375 7.13375 -3.2884375 7.13375 -2.5625 6.25 C-1.0515133 4.07417916 -0.45963849 2.57397552 0 0 Z " fill="#CBD6DF" transform="translate(300,350)"/>
<path d="M0 0 C4.97874002 2.20918118 8.73799598 5.92832984 10.828125 11.015625 C11.2952452 12.65721886 11.65871613 14.32770905 12 16 C7.49655775 12.34014204 3.39471482 8.73202672 0 4 C0 2.68 0 1.36 0 0 Z " fill="#E9EEF0" transform="translate(134,334)"/>
<path d="M0 0 C3.75610382 3.75610382 3.53873301 9.88519133 4 15 C3.89401411 18.10326673 3.52031718 20.93012864 3 24 C2.34 23.01 1.68 22.02 1 21 C0.01 20.34 -0.98 19.68 -2 19 C-1.34 18.67 -0.68 18.34 0 18 C0 12.06 0 6.12 0 0 Z " fill="#2F496F" transform="translate(221,119)"/>
<path d="M0 0 C0.66 0.33 1.32 0.66 2 1 C2 1.99 2 2.98 2 4 C1.34 4 0.68 4 0 4 C-0.12375 4.78375 -0.2475 5.5675 -0.375 6.375 C-1 9 -1 9 -3 11 C-3.66 11 -4.32 11 -5 11 C-5 10.01 -5 9.02 -5 8 C-5.66 8 -6.32 8 -7 8 C-7 7.01 -7 6.02 -7 5 C-5.46875 3.61328125 -5.46875 3.61328125 -3.5 2.3125 C-2.8503125 1.87550781 -2.200625 1.43851563 -1.53125 0.98828125 C-1.0259375 0.66214844 -0.520625 0.33601562 0 0 Z " fill="#244672" transform="translate(313,147)"/>
<path d="M0 0 C1.32 0.33 2.64 0.66 4 1 C4.125 7.625 4.125 7.625 3 11 C1.35 10.67 -0.3 10.34 -2 10 C-1.34 6.7 -0.68 3.4 0 0 Z " fill="#E4E7EA" transform="translate(285,135)"/>
<path d="M0 0 C1.65 0.33 3.3 0.66 5 1 C4.01 1.33 3.02 1.66 2 2 C1.67 4.64 1.34 7.28 1 10 C-1.64 9.67 -4.28 9.34 -7 9 C-7 7.02 -7 5.04 -7 3 C-5.515 3.99 -5.515 3.99 -4 5 C-3.34 5 -2.68 5 -2 5 C-1.34 5 -0.68 5 0 5 C0 3.35 0 1.7 0 0 Z " fill="#30527C" transform="translate(286,121)"/>
<path d="M0 0 C0.33 0 0.66 0 1 0 C1.22786458 2.01822917 1.45572917 4.03645833 1.68359375 6.0546875 C1.91292961 8.07404316 1.91292961 8.07404316 3 10 C2.1028125 10.1546875 2.1028125 10.1546875 1.1875 10.3125 C-1.28243264 11.08876455 -2.32251235 12.07088921 -4 14 C-4.144375 12.88625 -4.28875 11.7725 -4.4375 10.625 C-4.78372035 7.17857953 -4.78372035 7.17857953 -6 5 C-5.38125 4.9175 -4.7625 4.835 -4.125 4.75 C-1.81562433 4.18741541 -1.81562433 4.18741541 -0.75 1.9375 C-0.5025 1.298125 -0.255 0.65875 0 0 Z " fill="#B4C0CC" transform="translate(200,348)"/>
<path d="M0 0 C0.99 0.33 1.98 0.66 3 1 C2.38722388 3.96175123 1.74627478 5.38058783 0 8 C-0.03221188 9.9971365 -0.05916359 11.99555573 -0.00390625 13.9921875 C0.00082399 16.42353155 -0.41150664 18.64602657 -1 21 C-1.66 21 -2.32 21 -3 21 C-3.37369729 13.52605426 -2.04061541 7.17859349 0 0 Z " fill="#6AA756" transform="translate(311,205)"/>
<path d="M0 0 C1.32 0 2.64 0 4 0 C4 4.29 4 8.58 4 13 C2.68 13.33 1.36 13.66 0 14 C-1.13016601 8.97703996 -0.77916092 5.02125926 0 0 Z " fill="#284F81" transform="translate(292,123)"/>
<path d="M0 0 C2.64 0 5.28 0 8 0 C8 0.33 8 0.66 8 1 C15.92 1.33 23.84 1.66 32 2 C32 2.33 32 2.66 32 3 C21.11 3 10.22 3 -1 3 C-0.67 2.01 -0.34 1.02 0 0 Z " fill="#CED7DF" transform="translate(228,96)"/>
<path d="M0 0 C0.88300781 0.19464844 1.76601563 0.38929687 2.67578125 0.58984375 C3.67158203 0.82380859 3.67158203 0.82380859 4.6875 1.0625 C5.0175 2.7125 5.3475 4.3625 5.6875 6.0625 C5.11902344 5.86914062 4.55054688 5.67578125 3.96484375 5.4765625 C-0.76614938 3.88113577 -5.50044425 2.39349414 -10.3125 1.0625 C-10.3125 0.7325 -10.3125 0.4025 -10.3125 0.0625 C-6.51681539 -0.91548721 -3.8119001 -0.86403069 0 0 Z " fill="#E3E9ED" transform="translate(302.3125,104.9375)"/>
<path d="M0 0 C2.31 0 4.62 0 7 0 C7 0.66 7 1.32 7 2 C9.97 2.33 12.94 2.66 16 3 C16 3.99 16 4.98 16 6 C19.465 7.485 19.465 7.485 23 9 C23 9.66 23 10.32 23 11 C18.37060228 9.58211402 14.11488883 7.69481522 9.8125 5.5 C9.19697266 5.19191406 8.58144531 4.88382813 7.94726562 4.56640625 C5.17763435 3.16808754 2.58540147 1.72360098 0 0 Z " fill="#2D5C69" transform="translate(306,193)"/>
<path d="M0 0 C9.24 0 18.48 0 28 0 C27.67 0.66 27.34 1.32 27 2 C23.52674819 3.1577506 20.63932552 3.06866652 17 3 C17 2.34 17 1.68 17 1 C11.39 1 5.78 1 0 1 C0 0.67 0 0.34 0 0 Z " fill="#E9ECF1" transform="translate(242,391)"/>
<path d="M0 0 C-1.98 2.31 -3.96 4.62 -6 7 C-8.64 6.34 -11.28 5.68 -14 5 C-8.84290377 0.79289518 -6.71792803 -0.12440607 0 0 Z " fill="#294672" transform="translate(209,149)"/>
<path d="M0 0 C1.32 0.66 2.64 1.32 4 2 C3.63802104 4.62434747 3.17343943 5.82013689 1.3125 7.75 C-1.60427292 9.32663401 -3.73290013 9.22275681 -7 9 C-5.68 7.68 -4.36 6.36 -3 5 C-3.66 4.67 -4.32 4.34 -5 4 C-4.360625 3.71125 -3.72125 3.4225 -3.0625 3.125 C-0.84793921 2.17176549 -0.84793921 2.17176549 0 0 Z " fill="#D9DFE4" transform="translate(307,144)"/>
<path d="M0 0 C0.33 0 0.66 0 1 0 C0.85764543 1.72945653 0.71095618 3.45855654 0.5625 5.1875 C0.48128906 6.15042969 0.40007812 7.11335937 0.31640625 8.10546875 C0 11 0 11 -0.5 13.40625 C-1.13555431 16.70318798 -1.34337754 19.96305675 -1.5625 23.3125 C-1.64628906 24.56675781 -1.73007813 25.82101563 -1.81640625 27.11328125 C-1.87699219 28.06589844 -1.93757813 29.01851562 -2 30 C-2.66 29.67 -3.32 29.34 -4 29 C-2.60222369 4.761964 -2.60222369 4.761964 0 0 Z " fill="#88939E" transform="translate(105,209)"/>
<path d="M0 0 C0.33 0 0.66 0 1 0 C1 5.61 1 11.22 1 17 C-0.32 17.33 -1.64 17.66 -3 18 C-2.855625 17.19175781 -2.71125 16.38351563 -2.5625 15.55078125 C-2.376875 14.48214844 -2.19125 13.41351563 -2 12.3125 C-1.814375 11.25675781 -1.62875 10.20101562 -1.4375 9.11328125 C-0.93431592 6.05656596 -0.93431592 6.05656596 -1 3.16796875 C-1 1 -1 1 0 0 Z M-4 10 C-3.01 10.495 -3.01 10.495 -2 11 C-2.99 11.495 -2.99 11.495 -4 12 C-4 11.34 -4 10.68 -4 10 Z M-7 13 C-6.34 13.33 -5.68 13.66 -5 14 C-5.99 14 -6.98 14 -8 14 C-7.67 13.67 -7.34 13.34 -7 13 Z " fill="#A7B6B0" transform="translate(307,202)"/>
<path d="M0 0 C1.32 0.33 2.64 0.66 4 1 C3.87173082 9.08095819 1.36992101 13.06925173 -4 19 C-4.66 18.67 -5.32 18.34 -6 18 C-5.34 17.34 -4.68 16.68 -4 16 C-3.5359375 14.515 -3.5359375 14.515 -3.0625 13 C-2 10 -2 10 1 8 C1.25660094 4.92078868 1.39431504 2.78863007 0 0 Z " fill="#39567D" transform="translate(332,146)"/>
<path d="M0 0 C1.80030122 2.70045182 2.93377066 5.06677881 4.125 8.0625 C4.47820312 8.94035156 4.83140625 9.81820313 5.1953125 10.72265625 C6 13 6 13 6 15 C5.34 15 4.68 15 4 15 C4 14.34 4 13.68 4 13 C3.01 12.67 2.02 12.34 1 12 C-1.45297884 7.82993597 -0.90765496 4.6290403 0 0 Z " fill="#DAE0E6" transform="translate(114,294)"/>
<path d="M0 0 C1.32 0.33 2.64 0.66 4 1 C4.33 3.31 4.66 5.62 5 8 C1.71023192 9.09658936 0.28696233 8.79953138 -3 8 C-2.34 7.67 -1.68 7.34 -1 7 C-0.59270772 4.67843403 -0.25561323 2.3431213 0 0 Z " fill="#375885" transform="translate(276,135)"/>
<path d="M0 0 C1.66611905 -0.042721 3.33382885 -0.04063832 5 0 C6 1 6 1 6.125 3.5 C6 6 6 6 5 7 C3.33382885 7.04063832 1.66611905 7.042721 0 7 C0 4.69 0 2.38 0 0 Z " fill="#283D62" transform="translate(248,120)"/>
<path d="M0 0 C3.43734063 -0.08703823 6.87439837 -0.14040272 10.3125 -0.1875 C11.28896484 -0.21263672 12.26542969 -0.23777344 13.27148438 -0.26367188 C14.20927734 -0.27333984 15.14707031 -0.28300781 16.11328125 -0.29296875 C16.97735596 -0.3086792 17.84143066 -0.32438965 18.73168945 -0.34057617 C21.45018536 0.06759322 22.30363829 0.89592904 24 3 C20.37673261 4.2077558 19.35853631 3.54311128 16 2 C15.67 2.99 15.34 3.98 15 5 C15 3.68 15 2.36 15 1 C10.05 1.33 5.1 1.66 0 2 C0 1.34 0 0.68 0 0 Z " fill="#C3C8D2" transform="translate(260,216)"/>
<path d="M0 0 C4.62 0 9.24 0 14 0 C14 0.99 14 1.98 14 3 C12.04233719 3.08082094 10.08373272 3.13910778 8.125 3.1875 C6.48917969 3.23970703 6.48917969 3.23970703 4.8203125 3.29296875 C3.88960938 3.19628906 2.95890625 3.09960938 2 3 C1.34 2.01 0.68 1.02 0 0 Z " fill="#9DA8BC" transform="translate(267,209)"/>
<path d="M0 0 C2.1875 0.3125 2.1875 0.3125 4 1 C3.67 3.31 3.34 5.62 3 8 C1.125 7.75 1.125 7.75 -1 7 C-2.25 4.9375 -2.25 4.9375 -3 3 C-1.75 1.4375 -1.75 1.4375 0 0 Z " fill="#28446D" transform="translate(173,146)"/>
<path d="M0 0 C0.33 0 0.66 0 1 0 C1.5326514 6.258654 -0.18150494 10.45108785 -3 16 C-3.33 16 -3.66 16 -4 16 C-3.39578636 4.10324186 -3.39578636 4.10324186 0 0 Z " fill="#F4F7F6" transform="translate(390,283)"/>
<path d="M0 0 C1.41750563 0.11509661 2.83401169 0.24253658 4.25 0.375 C5.03890625 0.44460938 5.8278125 0.51421875 6.640625 0.5859375 C9.085877 1.01507113 10.84836903 1.78600638 13 3 C13 3.66 13 4.32 13 5 C8.28596212 4.52060632 4.33420699 4.03165952 0 2 C0 1.34 0 0.68 0 0 Z " fill="#F1F4F6" transform="translate(208,386)"/>
<path d="M0 0 C0.66 0 1.32 0 2 0 C1.49202991 4.3177458 0.80317221 8.03302114 -1 12 C-1.66 12 -2.32 12 -3 12 C-2.88601335 10.37419034 -2.75844341 8.74932843 -2.625 7.125 C-2.55539063 6.22007812 -2.48578125 5.31515625 -2.4140625 4.3828125 C-2 2 -2 2 0 0 Z " fill="#EBF0F3" transform="translate(111,196)"/>
<path d="M0 0 C0.66 0.33 1.32 0.66 2 1 C2 1.99 2 2.98 2 4 C-6.58 4 -15.16 4 -24 4 C-24 3.67 -24 3.34 -24 3 C-16.08 2.67 -8.16 2.34 0 2 C0 1.34 0 0.68 0 0 Z " fill="#A1ADC0" transform="translate(271,195)"/>
<path d="M0 0 C4.63017611 1.34031414 4.63017611 1.34031414 6.15625 4.0625 C7.24094778 7.83885522 7.21535982 11.42355251 7.125 15.3125 C7.11597656 16.05306641 7.10695313 16.79363281 7.09765625 17.55664062 C7.07424213 19.37123467 7.03837615 21.18566071 7 23 C6.67 23 6.34 23 6 23 C5.98582031 21.98679688 5.97164063 20.97359375 5.95703125 19.9296875 C6.04752535 11.47495661 6.04752535 11.47495661 2.4375 4.1875 C1.633125 3.465625 0.82875 2.74375 0 2 C0 1.34 0 0.68 0 0 Z " fill="#84B269" transform="translate(302,194)"/>
<path d="M0 0 C0.66 0 1.32 0 2 0 C2.433125 1.36125 2.433125 1.36125 2.875 2.75 C3.76531776 5.32202908 4.71494413 7.61346766 6 10 C5.01 10.99 4.02 11.98 3 13 C0.75393573 11.22555028 0.04918998 10.41647515 -0.29296875 7.51953125 C-0.25816406 6.62621094 -0.22335938 5.73289063 -0.1875 4.8125 C-0.16042969 3.91144531 -0.13335937 3.01039063 -0.10546875 2.08203125 C-0.07066406 1.39496094 -0.03585938 0.70789063 0 0 Z " fill="#F0F2F4" transform="translate(138,184)"/>
<path d="M0 0 C2.8992226 0.46761655 3.86675182 0.86675182 6 3 C5.625 5.125 5.625 5.125 5 7 C3.35 6.67 1.7 6.34 0 6 C-0.38218767 4.34385343 -0.71395102 2.67542976 -1 1 C-0.67 0.67 -0.34 0.34 0 0 Z " fill="#2B456B" transform="translate(319,154)"/>
<path d="M0 0 C1.65 0 3.3 0 5 0 C5.33 1.32 5.66 2.64 6 4 C7.65 4.33 9.3 4.66 11 5 C11 5.33 11 5.66 11 6 C9.35425434 6.02688151 7.70838587 6.04634123 6.0625 6.0625 C5.14597656 6.07410156 4.22945312 6.08570313 3.28515625 6.09765625 C1 6 1 6 0 5 C-0.04063832 3.33382885 -0.042721 1.66611905 0 0 Z " fill="#3C587B" transform="translate(229,131)"/>
<path d="M0 0 C1.65 0 3.3 0 5 0 C5.268125 0.639375 5.53625 1.27875 5.8125 1.9375 C6.88667752 4.33131686 6.88667752 4.33131686 10 5 C10.99 5.33 11.98 5.66 13 6 C13 6.66 13 7.32 13 8 C5.91392367 7.75979402 5.91392367 7.75979402 3.35546875 5.6328125 C0 1.5907781 0 1.5907781 0 0 Z " fill="#75A35A" transform="translate(352,244)"/>
<path d="M0 0 C1.66519519 0.34060811 3.33157466 0.67558396 5 1 C5 1.33 5 1.66 5 2 C-0.94 2.495 -0.94 2.495 -7 3 C-7 2.34 -7 1.68 -7 1 C-9.64 1.33 -12.28 1.66 -15 2 C-10.48619281 -1.00920479 -5.16018148 -1.77937293 0 0 Z " fill="#E1E7EC" transform="translate(228,98)"/>
<path d="M0 0 C3.3 0.33 6.6 0.66 10 1 C10 1.33 10 1.66 10 2 C7.69 2.33 5.38 2.66 3 3 C3.99 4.485 3.99 4.485 5 6 C2.25 6.75 2.25 6.75 -1 7 C-3.375 5.0625 -3.375 5.0625 -5 3 C-3.02 3 -1.04 3 1 3 C0.67 2.01 0.34 1.02 0 0 Z " fill="#B0BAC6" transform="translate(220,388)"/>
<path d="M0 0 C0.33 0 0.66 0 1 0 C0.875 3.25 0.875 3.25 0 7 C-3.11689836 9.5627831 -6.41017036 11.21676575 -10 13 C-2.74004684 3.24746292 -2.74004684 3.24746292 0 0 Z " fill="#E4EFE4" transform="translate(365,332)"/>
<path d="M0 0 C0.33 0 0.66 0 1 0 C1.46733615 4.57989423 1.17261016 7.24854513 -1.5 10.9375 C-2.325 11.948125 -3.15 12.95875 -4 14 C-4.66 13.67 -5.32 13.34 -6 13 C-4.58707905 8.1725201 -2.57025846 4.2837641 0 0 Z " fill="#345681" transform="translate(128,165)"/>
<path d="M0 0 C0 4.05164344 -1.61357669 5.79537442 -4 9 C-6.91765 10.9451 -8.62537285 11.45276317 -12 12 C-8 8 -4 4 0 0 Z " fill="#56789E" transform="translate(329,335)"/>
<path d="M0 0 C5.75 -0.125 5.75 -0.125 8 1 C7.67 4.63 7.34 8.26 7 12 C6.34 12 5.68 12 5 12 C5 8.7 5 5.4 5 2 C3.35 2.33 1.7 2.66 0 3 C0 2.01 0 1.02 0 0 Z " fill="#253A59" transform="translate(277,134)"/>
<path d="M0 0 C1.65 0 3.3 0 5 0 C4.67 3.63 4.34 7.26 4 11 C3.34 9.68 2.68 8.36 2 7 C1.34 6.67 0.68 6.34 0 6 C0 4.02 0 2.04 0 0 Z " fill="#D7E0E5" transform="translate(275,119)"/>
<path d="M0 0 C1.093125 0.185625 2.18625 0.37125 3.3125 0.5625 C6.93624133 1.2578068 6.93624133 1.2578068 10 0 C11.32 1.65 12.64 3.3 14 5 C13.01 5.495 13.01 5.495 12 6 C11.46375 5.71125 10.9275 5.4225 10.375 5.125 C6.96691549 3.51064418 3.7461871 3.37461871 0 3 C0 2.01 0 1.02 0 0 Z " fill="#2B5285" transform="translate(243,112)"/>
<path d="M0 0 C-0.45261358 1.43931117 -0.91232979 2.87638999 -1.375 4.3125 C-1.63023437 5.11300781 -1.88546875 5.91351563 -2.1484375 6.73828125 C-3 9 -3 9 -5 12 C-6.04745167 6.76274165 -6.04745167 6.76274165 -6 4 C-3.1 0 -3.1 0 0 0 Z " fill="#66984B" transform="translate(384,296)"/>
<path d="M0 0 C0.66 0.99 1.32 1.98 2 3 C1.125 5.6875 1.125 5.6875 0 8 C0.66 8 1.32 8 2 8 C1.67 8.66 1.34 9.32 1 10 C0.01 10 -0.98 10 -2 10 C-2.33 10.99 -2.66 11.98 -3 13 C-3.66 13 -4.32 13 -5 13 C-4.54554036 11.58208592 -4.08625056 10.16571954 -3.625 8.75 C-3.24214844 7.56664062 -3.24214844 7.56664062 -2.8515625 6.359375 C-2.04826333 4.13372042 -1.10288338 2.09068328 0 0 Z " fill="#34557C" transform="translate(121,178)"/>
<path d="M0 0 C6.11090483 -0.09945415 11.97403427 -0.0712828 18 1 C15.94766315 3.2477975 14.99332739 4.0022242 12 5 C11.34 4.34 10.68 3.68 10 3 C7.57284794 2.32059533 7.57284794 2.32059533 4.875 1.875 C3.96492188 1.70742187 3.05484375 1.53984375 2.1171875 1.3671875 C1.41851562 1.24601563 0.71984375 1.12484375 0 1 C0 0.67 0 0.34 0 0 Z " fill="#BAC3CE" transform="translate(264,167)"/>
<path d="M0 0 C3 3 3 3 3.3125 5.5625 C3 8 3 8 1 10 C-0.32 9.67 -1.64 9.34 -3 9 C-2.01 6.03 -1.02 3.06 0 0 Z " fill="#F5F7F7" transform="translate(325,155)"/>
<path d="M0 0 C1.2065625 0.0309375 1.2065625 0.0309375 2.4375 0.0625 C2.7675 1.7125 3.0975 3.3625 3.4375 5.0625 C1.4575 5.3925 -0.5225 5.7225 -2.5625 6.0625 C-2.94468767 4.40635343 -3.27645102 2.73792976 -3.5625 1.0625 C-2.5625 0.0625 -2.5625 0.0625 0 0 Z " fill="#254672" transform="translate(214.5625,134.9375)"/>
<path d="M0 0 C0 0.66 0 1.32 0 2 C-3.96 2.99 -7.92 3.98 -12 5 C-12 4.34 -12 3.68 -12 3 C-12.66 2.67 -13.32 2.34 -14 2 C-12.4176994 1.66179834 -10.83410625 1.32964061 -9.25 1 C-8.36828125 0.814375 -7.4865625 0.62875 -6.578125 0.4375 C-4 0 -4 0 0 0 Z " fill="#F1F5F7" transform="translate(221,99)"/>
<path d="M0 0 C-0.99 0.495 -0.99 0.495 -2 1 C-2 1.66 -2 2.32 -2 3 C-2.99 3.33 -3.98 3.66 -5 4 C-5 4.33 -5 4.66 -5 5 C-6.98 5 -8.96 5 -11 5 C-10.67 3.68 -10.34 2.36 -10 1 C-6.61981469 -0.04005702 -3.5219721 -0.08004482 0 0 Z " fill="#629C46" transform="translate(365,203)"/>
<path d="M0 0 C0.33 0.99 0.66 1.98 1 3 C1.99 3 2.98 3 4 3 C4.38133299 4.9914056 4.71325582 6.99279077 5 9 C4.67 9.33 4.34 9.66 4 10 C3.95936168 11.66617115 3.957279 13.33388095 4 15 C0.89809455 10.34714182 -0.33846504 5.58467324 0 0 Z " fill="#E7EEEF" transform="translate(386,194)"/>
<path d="M0 0 C0.33 1.32 0.66 2.64 1 4 C-2.465 5.485 -2.465 5.485 -6 7 C-6.33 5.35 -6.66 3.7 -7 2 C-4.35261084 0.5393715 -3.10551666 0 0 0 Z " fill="#DCE3E7" transform="translate(364,188)"/>
<path d="M0 0 C2 1 2 1 2.68603516 2.76586914 C2.88503418 3.51473389 3.0840332 4.26359863 3.2890625 5.03515625 C3.50820312 5.84404297 3.72734375 6.65292969 3.953125 7.48632812 C4.17484375 8.33646484 4.3965625 9.18660156 4.625 10.0625 C4.85445312 10.91650391 5.08390625 11.77050781 5.3203125 12.65039062 C5.88739162 14.76512317 6.44692622 16.88156939 7 19 C6.34 19 5.68 19 5 19 C1.93002165 12.8600433 0.94457629 6.76761128 0 0 Z " fill="#294065" transform="translate(201,126)"/>
<path d="M0 0 C4.875 4.75 4.875 4.75 6 7 C4.68 6.67 3.36 6.34 2 6 C2 5.34 2 4.68 2 4 C1.01 4.33 0.02 4.66 -1 5 C-0.67 3.35 -0.34 1.7 0 0 Z M-4 5 C-3.01 5.33 -2.02 5.66 -1 6 C-2 8 -2 8 -5.0625 9.125 C-6.031875 9.41375 -7.00125 9.7025 -8 10 C-6.68 8.35 -5.36 6.7 -4 5 Z " fill="#224C72" transform="translate(334,331)"/>
<path d="M0 0 C0.33 0 0.66 0 1 0 C1.32613618 4.67461851 0.70582788 7.16674383 -2 11 C-2.99 10.01 -3.98 9.02 -5 8 C-4.19185349 6.66402348 -3.37836819 5.331275 -2.5625 4 C-2.11003906 3.2575 -1.65757812 2.515 -1.19140625 1.75 C-0.79824219 1.1725 -0.40507812 0.595 0 0 Z " fill="#1B375C" transform="translate(145,236)"/>
<path d="M0 0 C2.27024968 -0.08097324 4.54132075 -0.13917704 6.8125 -0.1875 C8.07707031 -0.22230469 9.34164063 -0.25710937 10.64453125 -0.29296875 C14 0 14 0 15.94921875 1.51171875 C16.29597656 2.00285156 16.64273437 2.49398437 17 3 C15.10388566 2.85786703 13.20811606 2.71113093 11.3125 2.5625 C10.25675781 2.48128906 9.20101563 2.40007812 8.11328125 2.31640625 C5.34913703 2.03548319 2.71054259 1.59843148 0 1 C0 0.67 0 0.34 0 0 Z " fill="#CDD6DF" transform="translate(248,202)"/>
<path d="M0 0 C0.33 0.99 0.66 1.98 1 3 C3.64 3 6.28 3 9 3 C6.90217213 5.09782787 5.6200793 5.6509396 2.875 6.625 C2.15054687 6.88539063 1.42609375 7.14578125 0.6796875 7.4140625 C-0.15175781 7.70410156 -0.15175781 7.70410156 -1 8 C-1.625 5.6875 -1.625 5.6875 -2 3 C-1.34 2.01 -0.68 1.02 0 0 Z " fill="#33527A" transform="translate(346,188)"/>
<path d="M0 0 C0 0.99 0 1.98 0 3 C-4.455 3.495 -4.455 3.495 -9 4 C-9 3.34 -9 2.68 -9 2 C-8.34 2 -7.68 2 -7 2 C-7 1.34 -7 0.68 -7 0 C-3.98968256 -0.93423645 -3.13349732 -1.04449911 0 0 Z " fill="#E1E9EE" transform="translate(223,140)"/>
<path d="M0 0 C1.20628008 2.33214148 2.1654738 4.49642139 3 7 C1.6875 8.9375 1.6875 8.9375 0 11 C-0.69580267 12.31836295 -1.37224433 13.64791086 -2 15 C-2.66 13.35 -3.32 11.7 -4 10 C-3.525625 9.649375 -3.05125 9.29875 -2.5625 8.9375 C-0.32126175 6.15836457 -0.32882342 3.4855283 0 0 Z " fill="#38567D" transform="translate(259,120)"/>
<path d="M0 0 C1.485 0.99 1.485 0.99 3 2 C2.67 2.99 2.34 3.98 2 5 C2.928125 5.4640625 2.928125 5.4640625 3.875 5.9375 C5.25 6.625 6.625 7.3125 8 8 C8.625 10.5625 8.625 10.5625 9 13 C7.87105124 12.06725891 6.74699124 11.12859878 5.625 10.1875 C4.99851562 9.66542969 4.37203125 9.14335937 3.7265625 8.60546875 C2 7 2 7 0 4 C0 2.68 0 1.36 0 0 Z " fill="#397A50" transform="translate(311,299)"/>
<path d="M0 0 C5.21979128 -0.1799928 9.07262981 0.02905192 14 2 C14 2.33 14 2.66 14 3 C4.58997722 3.18451025 4.58997722 3.18451025 0 2 C0 1.34 0 0.68 0 0 Z " fill="#97A2B3" transform="translate(267,202)"/>
<path d="M0 0 C2.97 0.495 2.97 0.495 6 1 C5.67 1.99 5.34 2.98 5 4 C3.68 4 2.36 4 1 4 C0.01 6.31 -0.98 8.62 -2 11 C-2.33 11 -2.66 11 -3 11 C-3.37004405 4.46255507 -3.37004405 4.46255507 -1.5 2.125 C-1.005 1.75375 -0.51 1.3825 0 1 C0 0.67 0 0.34 0 0 Z " fill="#325480" transform="translate(312,130)"/>
<path d="M0 0 C0.66 0.33 1.32 0.66 2 1 C-2.56033396 5.33231726 -5.8203352 6.82799461 -12 8 C-12 7.34 -12 6.68 -12 6 C-10.04669132 4.96958487 -8.08718472 3.9509107 -6.125 2.9375 C-5.03445313 2.36902344 -3.94390625 1.80054688 -2.8203125 1.21484375 C-1.42425781 0.61349609 -1.42425781 0.61349609 0 0 Z " fill="#A8AEB9" transform="translate(318,377)"/>
<path d="M0 0 C2.1519437 3.22791555 2.20086443 4.28400809 2 8 C-2.75 7.25 -2.75 7.25 -5 5 C-3.625 3.5 -3.625 3.5 -2 2 C-1.34 2 -0.68 2 0 2 C0 1.34 0 0.68 0 0 Z " fill="#385F79" transform="translate(386,199)"/>
<path d="M0 0 C-0.66 0 -1.32 0 -2 0 C-1.67 0.99 -1.34 1.98 -1 3 C-2.65 3.66 -4.3 4.32 -6 5 C-6.66 4.34 -7.32 3.68 -8 3 C-8 2.01 -8 1.02 -8 0 C-4.94736336 -0.98120464 -3.05263664 -0.98120464 0 0 Z " fill="#DEE6EA" transform="translate(339,175)"/>
<path d="M0 0 C0.33 1.32 0.66 2.64 1 4 C-2.465 5.485 -2.465 5.485 -6 7 C-6.33 5.68 -6.66 4.36 -7 3 C-2.25 0 -2.25 0 0 0 Z " fill="#D6DEE5" transform="translate(199,137)"/>
<path d="M0 0 C-4.9748792 3.31658613 -11.03568353 4.38479461 -17 4 C-17 3.34 -17 2.68 -17 2 C-15.10507994 1.66151348 -13.20901534 1.32943089 -11.3125 1 C-9.72888672 0.7215625 -9.72888672 0.7215625 -8.11328125 0.4375 C-5.35095938 0.04931926 -2.78257957 -0.08259976 0 0 Z " fill="#8B96A1" transform="translate(285,391)"/>
<path d="M0 0 C1.17539996 0.92652701 2.34010577 1.86663387 3.5 2.8125 C4.1496875 3.33457031 4.799375 3.85664063 5.46875 4.39453125 C7 6 7 6 7 9 C5.1875 8.875 5.1875 8.875 3 8 C0 2.96428571 0 2.96428571 0 0 Z " fill="#D8DCE2" transform="translate(144,344)"/>
<path d="M0 0 C0.66 0.33 1.32 0.66 2 1 C1.35550393 4.01217112 0.34977818 6.51655836 -1.0625 9.25 C-1.42472656 9.95640625 -1.78695312 10.6628125 -2.16015625 11.390625 C-2.43730469 11.92171875 -2.71445313 12.4528125 -3 13 C-3.99 12.67 -4.98 12.34 -6 12 C-5.34 11.34 -4.68 10.68 -4 10 C-2.6507329 7.07658794 -2 5.24792684 -2 2 C-1.34 2 -0.68 2 0 2 C0 1.34 0 0.68 0 0 Z " fill="#2C4B77" transform="translate(164,182)"/>
<path d="M0 0 C3.58155513 1.65302544 6.72328557 3.81552372 10 6 C11.3191582 6.69429379 12.64649406 7.37530495 14 8 C10.55000031 8.42244894 7.99399975 8.62172957 4.9765625 6.734375 C3.18513593 5.22811429 1.51878942 3.78192314 0 2 C0 1.34 0 0.68 0 0 Z " fill="#1B2F4E" transform="translate(311,159)"/>
<path d="M0 0 C0.99 0 1.98 0 3 0 C3 1.65 3 3.3 3 5 C3.66 5.33 4.32 5.66 5 6 C4.67 6.66 4.34 7.32 4 8 C2.35 7.67 0.7 7.34 -1 7 C-0.67 4.69 -0.34 2.38 0 0 Z " fill="#F4F5F6" transform="translate(178,148)"/>
<path d="M0 0 C2.0625 0.4375 2.0625 0.4375 4 1 C3.67 2.65 3.34 4.3 3 6 C1.68 5.67 0.36 5.34 -1 5 C-1 1 -1 1 0 0 Z " fill="#2D3F5C" transform="translate(325,147)"/>
<path d="M0 0 C0.33 0.66 0.66 1.32 1 2 C-1.56428003 6.17882671 -4.01930733 9.12505529 -8 12 C-8.66 11.67 -9.32 11.34 -10 11 C-6.7 7.37 -3.4 3.74 0 0 Z " fill="#415F84" transform="translate(149,139)"/>
<path d="M0 0 C1.65 0 3.3 0 5 0 C4.34 3.3 3.68 6.6 3 10 C2.01 9.67 1.02 9.34 0 9 C0 6.03 0 3.06 0 0 Z " fill="#ECEFF0" transform="translate(245,117)"/>
<path d="M0 0 C1.65 0 3.3 0 5 0 C5 1.32 5 2.64 5 4 C2.69 4.33 0.38 4.66 -2 5 C-2.66 4.01 -3.32 3.02 -4 2 C-2.68 2 -1.36 2 0 2 C0 1.34 0 0.68 0 0 Z " fill="#3D5D86" transform="translate(307,351)"/>
<path d="M0 0 C2.97 0.33 5.94 0.66 9 1 C7.02 1.99 7.02 1.99 5 3 C4.67 3.99 4.34 4.98 4 6 C2.68 5.67 1.36 5.34 0 5 C0 3.35 0 1.7 0 0 Z " fill="#25593A" transform="translate(335,252)"/>
<path d="M0 0 C0.91330404 3.03050885 1.06558338 5.47968569 0.75 8.625 C0.68296875 9.40101563 0.6159375 10.17703125 0.546875 10.9765625 C0 13 0 13 -3 15 C-2.5547115 9.72684667 -1.91626837 4.98229776 0 0 Z " fill="#3E5B7D" transform="translate(113,197)"/>
<path d="M0 0 C3.39417765 3.12621626 5.6062718 5.56541027 7 10 C4.69 9.01 2.38 8.02 0 7 C0 4.69 0 2.38 0 0 Z " fill="#E1E9DB" transform="translate(300,193)"/>
<path d="M0 0 C0.66 0 1.32 0 2 0 C1.51098901 6.35714286 1.51098901 6.35714286 -0.9375 9.4375 C-3 11 -3 11 -5 11 C-4.731875 10.484375 -4.46375 9.96875 -4.1875 9.4375 C-2.67650593 6.33598585 -1.34427274 3.17737194 0 0 Z " fill="#365681" transform="translate(355,172)"/>
<path d="M0 0 C3.34373475 0.55728913 6.03312999 1.35173889 9 3 C9 3.66 9 4.32 9 5 C5.7 4.34 2.4 3.68 -1 3 C-0.67 2.01 -0.34 1.02 0 0 Z " fill="#1E3456" transform="translate(178,156)"/>
<path d="M0 0 C0.99 0.33 1.98 0.66 3 1 C3.33 3.97 3.66 6.94 4 10 C3.34 9.67 2.68 9.34 2 9 C2.33 8.01 2.66 7.02 3 6 C1.68 6 0.36 6 -1 6 C-0.67 4.02 -0.34 2.04 0 0 Z " fill="#365582" transform="translate(202,139)"/>
<path d="M0 0 C1.9375 0.6875 1.9375 0.6875 4 2 C4.75 4.625 4.75 4.625 5 7 C4.01 7.495 4.01 7.495 3 8 C3 7.34 3 6.68 3 6 C2.01 6.33 1.02 6.66 0 7 C0 4.69 0 2.38 0 0 Z " fill="#223758" transform="translate(248,131)"/>
<path d="M0 0 C1.2065625 0.0309375 1.2065625 0.0309375 2.4375 0.0625 C1.7775 2.0425 1.1175 4.0225 0.4375 6.0625 C-0.5525 6.0625 -1.5425 6.0625 -2.5625 6.0625 C-2.94468767 4.40635343 -3.27645102 2.73792976 -3.5625 1.0625 C-2.5625 0.0625 -2.5625 0.0625 0 0 Z " fill="#2A4672" transform="translate(211.5625,125.9375)"/>
<path d="M0 0 C0.66 0 1.32 0 2 0 C1.67 2.64 1.34 5.28 1 8 C-0.65 8.33 -2.3 8.66 -4 9 C-3.01 7.35 -2.02 5.7 -1 4 C-2.65 4.33 -4.3 4.66 -6 5 C-6 4.34 -6 3.68 -6 3 C-5.195625 2.87625 -4.39125 2.7525 -3.5625 2.625 C-2.716875 2.41875 -1.87125 2.2125 -1 2 C-0.67 1.34 -0.34 0.68 0 0 Z " fill="#416185" transform="translate(197,125)"/>
<path d="M0 0 C5.94 2.475 5.94 2.475 12 5 C11.01 5.99 10.02 6.98 9 8 C9 7.01 9 6.02 9 5 C6.69 5 4.38 5 2 5 C1.34 3.35 0.68 1.7 0 0 Z " fill="#355482" transform="translate(303,109)"/>
<path d="M0 0 C8.415 1.485 8.415 1.485 17 3 C12.64467851 5.17766075 11.53374042 5.03039555 7 4 C7 3.34 7 2.68 7 2 C5.02 2 3.04 2 1 2 C0.67 1.34 0.34 0.68 0 0 Z " fill="#37567F" transform="translate(269,100)"/>
<path d="M0 0 C3.63 0.33 7.26 0.66 11 1 C9.68 1.33 8.36 1.66 7 2 C7 2.66 7 3.32 7 4 C5.02 4 3.04 4 1 4 C0.67 2.68 0.34 1.36 0 0 Z " fill="#E5EBED" transform="translate(264,96)"/>
<path d="M0 0 C1.3271261 3.9813783 1.06915913 7.85045227 1 12 C-0.65 12.66 -2.3 13.32 -4 14 C-3.52188823 12.22888156 -3.0424722 10.45811517 -2.5625 8.6875 C-2.29566406 7.70136719 -2.02882813 6.71523438 -1.75390625 5.69921875 C-1.21920575 3.78482474 -0.62855462 1.88566385 0 0 Z " fill="#D5E5D0" transform="translate(386,289)"/>
<path d="M0 0 C3 1 3 1 4 3 C4.039992 4.99960012 4.04346799 7.00047242 4 9 C3.01 9.495 3.01 9.495 2 10 C0.68373308 6.38026598 0 3.90432869 0 0 Z " fill="#EDF1F3" transform="translate(110,289)"/>
<path d="M0 0 C0.66 0.33 1.32 0.66 2 1 C2.125 6.75 2.125 6.75 1 9 C0.34 9 -0.32 9 -1 9 C-1.625 5.625 -1.625 5.625 -2 2 C-1.34 1.34 -0.68 0.68 0 0 Z " fill="#68A74A" transform="translate(311,195)"/>
<path d="M0 0 C-1.32 1.65 -2.64 3.3 -4 5 C-5.32 4.34 -6.64 3.68 -8 3 C-7.67 2.01 -7.34 1.02 -7 0 C-3.86650268 -1.04449911 -3.01031744 -0.93423645 0 0 Z " fill="#364863" transform="translate(350,176)"/>
<path d="M0 0 C0.66 0.33 1.32 0.66 2 1 C2 1.66 2 2.32 2 3 C0.2092015 3.50310058 -1.58266911 4.00238628 -3.375 4.5 C-4.87160156 4.91765625 -4.87160156 4.91765625 -6.3984375 5.34375 C-9 6 -9 6 -11 6 C-11 5.34 -11 4.68 -11 4 C-10.28972656 3.79503906 -9.57945312 3.59007812 -8.84765625 3.37890625 C-7.92855469 3.10949219 -7.00945312 2.84007812 -6.0625 2.5625 C-4.68771484 2.16224609 -4.68771484 2.16224609 -3.28515625 1.75390625 C-1.0597507 1.20973949 -1.0597507 1.20973949 0 0 Z " fill="#3A5D82" transform="translate(347,168)"/>
<path d="M0 0 C0 0.99 0 1.98 0 3 C-2.31 3.33 -4.62 3.66 -7 4 C-6.6875 2.0625 -6.6875 2.0625 -6 0 C-3 -1 -3 -1 0 0 Z " fill="#E3E8EC" transform="translate(218,131)"/>
<path d="M0 0 C2.97 0.99 5.94 1.98 9 3 C8.67 3.66 8.34 4.32 8 5 C5.69 4.67 3.38 4.34 1 4 C0.67 2.68 0.34 1.36 0 0 Z " fill="#F0F3F4" transform="translate(308,108)"/>
<path d="M0 0 C0.66 0 1.32 0 2 0 C2.33 1.32 2.66 2.64 3 4 C4.32 4 5.64 4 7 4 C7.33 6.31 7.66 8.62 8 11 C4.31993178 7.61831569 2.0214155 4.57478244 0 0 Z " fill="#3F7D55" transform="translate(341,338)"/>
<path d="M0 0 C0 0.33 0 0.66 0 1 C-2.31 1 -4.62 1 -7 1 C-7 2.98 -7 4.96 -7 7 C-8.5625 5.1875 -8.5625 5.1875 -10 3 C-9.67 2.01 -9.34 1.02 -9 0 C-5.8033 -1.37001429 -3.30096158 -0.8252404 0 0 Z " fill="#78AC72" transform="translate(359,311)"/>
<path d="M0 0 C0.33 0 0.66 0 1 0 C1.3690205 9.41002278 1.3690205 9.41002278 -1 14 C-1.33 14 -1.66 14 -2 14 C-2.1799928 8.78020872 -1.97094808 4.92737019 0 0 Z " fill="#3F5B7F" transform="translate(238,196)"/>
<path d="M0 0 C-3.0684847 2.97550031 -4.46236331 3.96474513 -8.8125 4.25 C-9.864375 4.1675 -10.91625 4.085 -12 4 C-7.66457495 0.67617413 -5.52858726 -0.12018668 0 0 Z " fill="#1D3C65" transform="translate(357,198)"/>
<path d="M0 0 C0.66 0.99 1.32 1.98 2 3 C2.99 3.33 3.98 3.66 5 4 C3.75023244 7.65316671 3.32901247 8.78065836 0 11 C0 10.01 0 9.02 0 8 C0.66 8 1.32 8 2 8 C0.33075929 4.95865509 0.33075929 4.95865509 -2 4 C-1.34 2.68 -0.68 1.36 0 0 Z " fill="#38547D" transform="translate(313,143)"/>
<path d="M0 0 C2.31 0 4.62 0 7 0 C7.33 0.66 7.66 1.32 8 2 C4.91190305 3.76462683 3.76687864 4 0 4 C0 2.68 0 1.36 0 0 Z " fill="#355986" transform="translate(228,124)"/>
<path d="M0 0 C1.65 0 3.3 0 5 0 C5 1.32 5 2.64 5 4 C2.69 4 0.38 4 -2 4 C-1.34 2.68 -0.68 1.36 0 0 Z " fill="#EBF1F3" transform="translate(231,117)"/>
<path d="M0 0 C2.94721162 2.74395564 5.19168608 5.38337216 7 9 C6.67 9.66 6.34 10.32 6 11 C3.5625 9.4375 3.5625 9.4375 1 7 C0.1875 3.25 0.1875 3.25 0 0 Z " fill="#375682" transform="translate(368,162)"/>
<path d="M0 0 C0.99 0.33 1.98 0.66 3 1 C3 1.99 3 2.98 3 4 C-0.8503105 6.56687367 -2.58569763 5.83288724 -7 5 C-7 4.67 -7 4.34 -7 4 C-6.030625 3.71125 -5.06125 3.4225 -4.0625 3.125 C-0.89335797 2.35785318 -0.89335797 2.35785318 0 0 Z " fill="#3C587B" transform="translate(192,154)"/>
<path d="M0 0 C1.65 0.33 3.3 0.66 5 1 C4.34 2.65 3.68 4.3 3 6 C2.01 5.67 1.02 5.34 0 5 C-0.33 4.01 -0.66 3.02 -1 2 C-0.67 1.34 -0.34 0.68 0 0 Z " fill="#E0E8EC" transform="translate(301,127)"/>
<path d="M0 0 C0.66 0.33 1.32 0.66 2 1 C2.62599243 4.38035912 3 7.56169885 3 11 C1.35 9.02 -0.3 7.04 -2 5 C-1.34 3.35 -0.68 1.7 0 0 Z " fill="#448056" transform="translate(337,327)"/>
<path d="M0 0 C1.22589844 0.29197266 1.22589844 0.29197266 2.4765625 0.58984375 C3.41628906 0.82380859 3.41628906 0.82380859 4.375 1.0625 C4.375 1.7225 4.375 2.3825 4.375 3.0625 C-2.025 3.43173077 -2.025 3.43173077 -5.0625 1.5625 C-5.578125 1.0675 -6.09375 0.5725 -6.625 0.0625 C-3.99249612 -1.25375194 -2.82320944 -0.68563658 0 0 Z " fill="#142F52" transform="translate(146.625,198.9375)"/>
<path d="M0 0 C3.465 1.485 3.465 1.485 7 3 C7 3.99 7 4.98 7 6 C4.69 5.34 2.38 4.68 0 4 C0 2.68 0 1.36 0 0 Z " fill="#5A994A" transform="translate(313,196)"/>
<path d="M0 0 C0.99 0 1.98 0 3 0 C2.67 1.65 2.34 3.3 2 5 C0.35 5.33 -1.3 5.66 -3 6 C-2 4 -1 2 0 0 Z " fill="#F1F5F5" transform="translate(355,191)"/>
<path d="M0 0 C0.99 0 1.98 0 3 0 C3 2.64 3 5.28 3 8 C2.01 8 1.02 8 0 8 C0 5.36 0 2.72 0 0 Z " fill="#F1F5F5" transform="translate(156,184)"/>
<path d="M0 0 C0.99 0 1.98 0 3 0 C2.67 2.31 2.34 4.62 2 7 C1.67 6.01 1.34 5.02 1 4 C-0.65 4 -2.3 4 -4 4 C-3.67 3.34 -3.34 2.68 -3 2 C-2.34 2.33 -1.68 2.66 -1 3 C-0.67 2.01 -0.34 1.02 0 0 Z " fill="#DAE0E3" transform="translate(347,178)"/>
<path d="M0 0 C0.86625 0.639375 1.7325 1.27875 2.625 1.9375 C5.9598812 3.97548296 8.16047478 4.63433093 12 5 C12 5.33 12 5.66 12 6 C10.56344146 6.08131463 9.1255517 6.13933559 7.6875 6.1875 C6.48673828 6.23970703 6.48673828 6.23970703 5.26171875 6.29296875 C3 6 3 6 1.20703125 4.67578125 C0 3 0 3 0 0 Z " fill="#192E4D" transform="translate(294,148)"/>
<path d="M0 0 C0.66 0.33 1.32 0.66 2 1 C-1.44615385 5.8 -1.44615385 5.8 -4.25 6.8125 C-5.11625 6.9053125 -5.11625 6.9053125 -6 7 C-6.33 6.01 -6.66 5.02 -7 4 C-1.7265625 0.77734375 -1.7265625 0.77734375 0 0 Z " fill="#355682" transform="translate(180,116)"/>
<path d="M0 0 C2.6875 -0.3125 2.6875 -0.3125 5 0 C4.67 0.99 4.34 1.98 4 3 C0.4375 4.1875 0.4375 4.1875 -3 5 C-1.8125 2.5 -1.8125 2.5 0 0 Z " fill="#E3E8EC" transform="translate(204,102)"/>
<path d="M0 0 C-2.55991624 2.01136276 -5.04590299 3.62845496 -8 5 C-9.32 4.01 -10.64 3.02 -12 2 C-10.37787941 1.47026689 -8.75218416 0.95146893 -7.125 0.4375 C-6.22007812 0.14746094 -5.31515625 -0.14257812 -4.3828125 -0.44140625 C-2 -1 -2 -1 0 0 Z " fill="#D0D7DD" transform="translate(294,385)"/>
<path d="M0 0 C0.66 0.33 1.32 0.66 2 1 C1.34 2.32 0.68 3.64 0 5 C-2.31 5 -4.62 5 -7 5 C-5.47058649 1.94117299 -3.05780454 1.31048766 0 0 Z " fill="#EAEEEF" transform="translate(296,383)"/>
<path d="M0 0 C0 0.99 0 1.98 0 3 C-2.64 3.99 -5.28 4.98 -8 6 C-8 4 -8 4 -6.25 1.875 C-4 0 -4 0 0 0 Z " fill="#ECF0F0" transform="translate(312,378)"/>
<path d="M0 0 C0.99 0.33 1.98 0.66 3 1 C4.1875 3.5625 4.1875 3.5625 5 6 C4.01 6.495 4.01 6.495 3 7 C2.34 7.99 1.68 8.98 1 10 C0.67 6.7 0.34 3.4 0 0 Z " fill="#476686" transform="translate(298,344)"/>
<path d="M0 0 C1.98 0.66 3.96 1.32 6 2 C6 3.32 6 4.64 6 6 C3.37812506 4.95125002 2.20628639 4.35068687 0.75 1.875 C0.5025 1.25625 0.255 0.6375 0 0 Z " fill="#30425D" transform="translate(156,166)"/>
<path d="M0 0 C0.66 0 1.32 0 2 0 C2.33 1.32 2.66 2.64 3 4 C2.34 4 1.68 4 1 4 C1 4.66 1 5.32 1 6 C0.34 6 -0.32 6 -1 6 C-1 5.34 -1 4.68 -1 4 C-2.65 4 -4.3 4 -6 4 C-6 3.67 -6 3.34 -6 3 C-4.35 3 -2.7 3 -1 3 C-0.67 2.01 -0.34 1.02 0 0 Z " fill="#21436C" transform="translate(249,137)"/>
<path d="M0 0 C-1.44077046 3.36179774 -3.24750021 5.59156268 -6 8 C-6.66 8 -7.32 8 -8 8 C-6.48291727 4.46014029 -4.24676932 0 0 0 Z " fill="#BABFC5" transform="translate(151,132)"/>
<path d="M0 0 C3.63 0 7.26 0 11 0 C7 3 7 3 3.8125 2.8125 C2.884375 2.544375 1.95625 2.27625 1 2 C0.67 1.34 0.34 0.68 0 0 Z " fill="#ECF1F3" transform="translate(222,390)"/>
<path d="M0 0 C1.32 0.66 2.64 1.32 4 2 C2.35 3.65 0.7 5.3 -1 7 C-1.66 6.34 -2.32 5.68 -3 5 C-2.34 5 -1.68 5 -1 5 C-0.67 3.35 -0.34 1.7 0 0 Z " fill="#2F5178" transform="translate(345,349)"/>
<path d="M0 0 C2.97069541 2.54631035 4.4775751 5.42230149 6 9 C5.67 9.66 5.34 10.32 5 11 C4.731875 10.360625 4.46375 9.72125 4.1875 9.0625 C3.11332248 6.66868314 3.11332248 6.66868314 0 6 C0 4.02 0 2.04 0 0 Z " fill="#788592" transform="translate(117,311)"/>
<path d="M0 0 C0.66 0 1.32 0 2 0 C1.53199289 4.05606165 1.12046792 7.46588679 -1 11 C-1.125 3.375 -1.125 3.375 0 0 Z " fill="#F8FAF9" transform="translate(392,270)"/>
<path d="M0 0 C0.33 0 0.66 0 1 0 C1 3.3 1 6.6 1 10 C-0.32 10.33 -1.64 10.66 -3 11 C-2.690625 9.9275 -2.38125 8.855 -2.0625 7.75 C-1.33187904 5.17133778 -0.62517096 2.60487898 0 0 Z " fill="#387048" transform="translate(349,258)"/>
<path d="M0 0 C3.58357037 0.27565926 5.34858004 1.20193885 8.25 3.25 C7.92 3.91 7.59 4.57 7.25 5.25 C5.7910574 4.77269162 4.33286504 4.29308958 2.875 3.8125 C2.06289062 3.54566406 1.25078125 3.27882812 0.4140625 3.00390625 C-1.75 2.25 -1.75 2.25 -3.75 1.25 C-2.75 0.25 -2.75 0.25 0 0 Z " fill="#11203A" transform="translate(135.75,250.75)"/>
<path d="M0 0 C0.66 0.99 1.32 1.98 2 3 C-0.64 3 -3.28 3 -6 3 C-6.33 2.34 -6.66 1.68 -7 1 C-4.46578263 -0.26710868 -2.80561762 -0.28056176 0 0 Z " fill="#C5CDDD" transform="translate(267,209)"/>
<path d="M0 0 C0.66 0.99 1.32 1.98 2 3 C-1.81756824 4.37432457 -5.07255329 3.67975039 -9 3 C-9 2.67 -9 2.34 -9 2 C-6.03 1.34 -3.06 0.68 0 0 Z " fill="#3C5372" transform="translate(155,197)"/>
<path d="M0 0 C2.475 0.495 2.475 0.495 5 1 C5.6875 2.75 5.6875 2.75 6 5 C4.5625 7.25 4.5625 7.25 3 9 C2.87625 7.88625 2.7525 6.7725 2.625 5.625 C2.3534187 1.96896323 2.3534187 1.96896323 0 0 Z " fill="#DBE4EA" transform="translate(349,170)"/>
<path d="M0 0 C2.125 0.375 2.125 0.375 4 1 C3.01 1.66 2.02 2.32 1 3 C1.99 3.66 2.98 4.32 4 5 C2.02 5.99 2.02 5.99 0 7 C-0.66 5.35 -1.32 3.7 -2 2 C-1.34 1.34 -0.68 0.68 0 0 Z " fill="#2F4A6F" transform="translate(191,134)"/>
<path d="M0 0 C-0.33 0.66 -0.66 1.32 -1 2 C-3.06640625 2.4140625 -3.06640625 2.4140625 -5.5625 2.625 C-6.38878906 2.69976562 -7.21507812 2.77453125 -8.06640625 2.8515625 C-9.02353516 2.92503906 -9.02353516 2.92503906 -10 3 C-8.0130571 -0.97388579 -3.91761109 -0.08705802 0 0 Z " fill="#F7F8FA" transform="translate(287,388)"/>
<path d="M0 0 C-0.33 0.99 -0.66 1.98 -1 3 C-3.0625 3.6875 -3.0625 3.6875 -5 4 C-5 3.34 -5 2.68 -5 2 C-5.66 1.67 -6.32 1.34 -7 1 C-3.375 -1.125 -3.375 -1.125 0 0 Z " fill="#DAE3E7" transform="translate(317,376)"/>
<path d="M0 0 C2.61527381 2.36620011 4.26440562 4.942048 6 8 C5.01 8.33 4.02 8.66 3 9 C2.67 7.35 2.34 5.7 2 4 C1.01 3.67 0.02 3.34 -1 3 C-0.67 2.01 -0.34 1.02 0 0 Z " fill="#717E8A" transform="translate(126,327)"/>
<path d="M0 0 C1.41377341 2.63904371 2.37240135 5.07120629 3 8 C1.68 8 0.36 8 -1 8 C-1.33 6.02 -1.66 4.04 -2 2 C-1.34 2 -0.68 2 0 2 C0 1.34 0 0.68 0 0 Z " fill="#DCE4E8" transform="translate(110,282)"/>
<path d="M0 0 C0.66 0 1.32 0 2 0 C3.10844919 3.32534757 2.84454356 5.62182575 2 9 C1.34 9 0.68 9 0 9 C0 6.03 0 3.06 0 0 Z " fill="#629B5C" transform="translate(308,217)"/>
<path d="M0 0 C-1.36983503 3.16115776 -1.9890638 3.9927092 -5 6 C-5.66 5.34 -6.32 4.68 -7 4 C-3.375 0 -3.375 0 0 0 Z " fill="#F3F8F8" transform="translate(150,137)"/>
<path d="M0 0 C-1.32 2.31 -2.64 4.62 -4 7 C-5.4606285 4.35261084 -6 3.10551666 -6 0 C-2.25 -1.125 -2.25 -1.125 0 0 Z " fill="#CCD5DE" transform="translate(208,124)"/>
<path d="M0 0 C2.64 0 5.28 0 8 0 C7.67 0.99 7.34 1.98 7 3 C5.02 3 3.04 3 1 3 C0.67 2.01 0.34 1.02 0 0 Z " fill="#81909E" transform="translate(258,394)"/>
<path d="M0 0 C0.33 1.32 0.66 2.64 1 4 C-0.32 4.99 -1.64 5.98 -3 7 C-3 5.02 -3 3.04 -3 1 C-2.01 0.67 -1.02 0.34 0 0 Z " fill="#1B3257" transform="translate(152,259)"/>
<path d="M0 0 C0.99 0.99 1.98 1.98 3 3 C2.67 3.66 2.34 4.32 2 5 C1.01 5.33 0.02 5.66 -1 6 C-1.33 6.66 -1.66 7.32 -2 8 C-2.99 7.67 -3.98 7.34 -5 7 C-4.34 7 -3.68 7 -3 7 C-2.690625 6.21625 -2.38125 5.4325 -2.0625 4.625 C-1 2 -1 2 0 0 Z " fill="#DCECD9" transform="translate(350,242)"/>
<path d="M0 0 C2.97 0.495 2.97 0.495 6 1 C5.67 2.65 5.34 4.3 5 6 C4.01 6 3.02 6 2 6 C2 5.01 2 4.02 2 3 C1.34 2.01 0.68 1.02 0 0 Z " fill="#3F5C81" transform="translate(178,159)"/>
<path d="M0 0 C1.98 0.495 1.98 0.495 4 1 C4.33 3.31 4.66 5.62 5 8 C4.34 8 3.68 8 3 8 C2.71125 7.38125 2.4225 6.7625 2.125 6.125 C1.06279958 3.86674235 1.06279958 3.86674235 -1 2 C-0.67 1.34 -0.34 0.68 0 0 Z " fill="#D8DEE3" transform="translate(178,145)"/>
<path d="M0 0 C-3.66291938 2.47785723 -6.6109185 3.48964169 -11 4 C-11 3.34 -11 2.68 -11 2 C-9.54494642 1.47007308 -8.08581873 0.9513211 -6.625 0.4375 C-5.81289062 0.14746094 -5.00078125 -0.14257812 -4.1640625 -0.44140625 C-2 -1 -2 -1 0 0 Z " fill="#35557C" transform="translate(208,106)"/>
<path d="M0 0 C0 1.65 0 3.3 0 5 C-2.4375 4.625 -2.4375 4.625 -5 4 C-5.33 3.34 -5.66 2.68 -6 2 C-1.125 0 -1.125 0 0 0 Z " fill="#E8EBEE" transform="translate(200,351)"/>
<path d="M0 0 C1.98 0.99 3.96 1.98 6 3 C6 4.98 6 6.96 6 9 C5.67 9 5.34 9 5 9 C5 7.35 5 5.7 5 4 C3.68 4 2.36 4 1 4 C0.67 2.68 0.34 1.36 0 0 Z " fill="#1B3353" transform="translate(190,352)"/>
<path d="M0 0 C0.99 0.33 1.98 0.66 3 1 C3 2.98 3 4.96 3 7 C2.01 6.67 1.02 6.34 0 6 C0 4.02 0 2.04 0 0 Z " fill="#EDF0F3" transform="translate(107,277)"/>
<path d="M0 0 C0.33 0 0.66 0 1 0 C1 2.64 1 5.28 1 8 C0.34 8 -0.32 8 -1 8 C-1.33 8.99 -1.66 9.98 -2 11 C-2.19622241 6.78121808 -1.80230168 3.82989106 0 0 Z " fill="#E6EAED" transform="translate(105,250)"/>
<path d="M0 0 C0.33 0 0.66 0 1 0 C1.36923077 7.50769231 1.36923077 7.50769231 -0.5 10 C-0.995 10.33 -1.49 10.66 -2 11 C-2 10.01 -2 9.02 -2 8 C-2.66 8 -3.32 8 -4 8 C-3.67 7.34 -3.34 6.68 -3 6 C-2.34 6 -1.68 6 -1 6 C-0.67 4.02 -0.34 2.04 0 0 Z " fill="#BECAD3" transform="translate(159,185)"/>
<path d="M0 0 C0.66 0 1.32 0 2 0 C1.67 2.64 1.34 5.28 1 8 C-0.5625 6.75 -0.5625 6.75 -2 5 C-1.74853421 2.86254078 -1.54074221 1.54074221 0 0 Z " fill="#DEE6E9" transform="translate(152,161)"/>
<path d="M0 0 C0.99 0 1.98 0 3 0 C2.67 1.65 2.34 3.3 2 5 C0.68 4.34 -0.64 3.68 -2 3 C-1.34 2.01 -0.68 1.02 0 0 Z " fill="#F1F6F5" transform="translate(167,148)"/>
<path d="M0 0 C0.99 0 1.98 0 3 0 C3 0.99 3 1.98 3 3 C3.66 3.33 4.32 3.66 5 4 C3.68 4.33 2.36 4.66 1 5 C0.34 3.68 -0.32 2.36 -1 1 C-0.67 0.67 -0.34 0.34 0 0 Z " fill="#29446E" transform="translate(194,143)"/>
<path d="M0 0 C1.65 0 3.3 0 5 0 C5 1.32 5 2.64 5 4 C3.35 3.67 1.7 3.34 0 3 C0 2.01 0 1.02 0 0 Z " fill="#D3DDE3" transform="translate(232,127)"/>
<path d="M0 0 C-0.33 1.32 -0.66 2.64 -1 4 C-3.31 4 -5.62 4 -8 4 C-5.57415142 1.34311822 -3.76063134 0 0 0 Z " fill="#44638A" transform="translate(196,109)"/>
<path d="M0 0 C1.4800841 0.11362262 2.95910074 0.24122908 4.4375 0.375 C5.26121094 0.44460938 6.08492187 0.51421875 6.93359375 0.5859375 C7.95646484 0.79089844 7.95646484 0.79089844 9 1 C9.33 1.66 9.66 2.32 10 3 C7.25 3.75 7.25 3.75 4 4 C1.625 2.0625 1.625 2.0625 0 0 Z " fill="#6E7A8A" transform="translate(215,391)"/>
<path d="M0 0 C1.2077558 3.62326739 0.54311128 4.64146369 -1 8 C-1.66 7.67 -2.32 7.34 -3 7 C-2.25 2.25 -2.25 2.25 0 0 Z " fill="#F2F6F8" transform="translate(385,300)"/>
<path d="M0 0 C1.98 0 3.96 0 6 0 C6.33 0.99 6.66 1.98 7 3 C4.625 3.1875 4.625 3.1875 2 3 C1.34 2.01 0.68 1.02 0 0 Z " fill="#B0B9CB" transform="translate(267,209)"/>
<path d="M0 0 C2.86724686 0.57344937 3.8614515 0.8614515 6 3 C5.625 5.125 5.625 5.125 5 7 C2.47411298 4.63707344 1.11179163 3.33537489 0 0 Z " fill="#3E5D86" transform="translate(289,176)"/>
<path d="M0 0 C0.33 0 0.66 0 1 0 C1.1875 2.875 1.1875 2.875 1 6 C0.01 6.66 -0.98 7.32 -2 8 C-1.125 1.125 -1.125 1.125 0 0 Z " fill="#244A78" transform="translate(306,129)"/>
<path d="M0 0 C-2.38573379 1.89213369 -4.07175348 3.02391783 -7 4 C-7.33 3.01 -7.66 2.02 -8 1 C-5.29120665 -0.35439668 -2.99066732 -0.06501451 0 0 Z " fill="#2F537E" transform="translate(190,130)"/>
<path d="M0 0 C-0.33 1.32 -0.66 2.64 -1 4 C-1.99 4 -2.98 4 -4 4 C-4 3.34 -4 2.68 -4 2 C-4.66 1.67 -5.32 1.34 -6 1 C-4 0 -4 0 0 0 Z " fill="#E5EBEF" transform="translate(196,129)"/>
<path d="M0 0 C1.32 0 2.64 0 4 0 C3.40072174 3.35595828 2.15377564 5.37801226 0 8 C0 5.36 0 2.72 0 0 Z " fill="#4D6A91" transform="translate(292,123)"/>
</svg>
